# Blender 4.4.0
# www.blender.org
mtllib Meshy_AI_Cash_Bundle_0820173211_texture.mtl
o Meshy_AI_Cash_Bundle_0820173211_texture
v -0.500000 -0.145508 -0.242188
v -0.500000 -0.137695 -0.242188
v -0.247070 -0.136719 -0.240234
v -0.249023 -0.007507 -0.234375
v -0.000077 -0.005188 -0.234375
v 0.246094 0.004089 -0.237305
v -0.000683 -0.011414 -0.234375
v 0.500000 -0.067871 -0.239258
v 0.245117 -0.075195 -0.237305
v 0.244141 -0.056396 -0.236328
v 0.245117 -0.068359 -0.237305
v -0.001282 -0.071777 -0.235352
v 0.500000 -0.060791 -0.239258
v -0.000120 0.071777 0.233398
v -0.246094 0.077148 0.234375
v -0.000660 0.088867 0.233398
v -0.500000 -0.036377 0.242188
v -0.248047 -0.055664 0.239258
v 0.000195 -0.049316 0.239258
v -0.500000 -0.046631 0.241211
v -0.247070 -0.047363 0.240234
v 0.500000 0.109863 -0.242188
v 0.245117 0.115723 -0.237305
v 0.500000 0.135742 -0.241211
v 0.102539 -0.144531 0.230469
v 0.101074 -0.144531 0.237305
v -0.500000 0.055664 -0.238281
v -0.500000 0.037109 -0.236328
v -0.500000 -0.036377 -0.242188
v 0.245117 0.076660 -0.236328
v 0.244141 0.094727 -0.236328
v 0.500000 0.101074 -0.239258
v 0.500000 0.083008 -0.238281
v 0.498047 -0.134766 0.237305
v 0.246094 -0.127930 0.240234
v 0.500000 -0.136719 0.240234
v 0.500000 -0.145508 0.242188
v -0.000984 0.024292 -0.239258
v -0.000954 0.023438 0.238281
v -0.000923 -0.110840 -0.235352
v -0.247070 -0.107910 -0.235352
v -0.500000 -0.132812 -0.237305
v 0.245117 0.025757 -0.240234
v 0.246094 0.024048 0.239258
v 0.500000 0.024902 0.241211
v -0.000767 0.034668 0.240234
v 0.246094 -0.024780 -0.241211
v -0.000748 -0.013855 -0.241211
v -0.001060 -0.024536 -0.240234
v -0.500000 0.135742 0.241211
v -0.500000 0.137695 0.244141
v -0.500000 -0.009155 -0.238281
v -0.500000 -0.009705 0.236328
v 0.101074 0.038330 0.246094
v 0.101562 0.144531 0.236328
v -0.107422 0.143555 0.236328
v 0.500000 -0.073730 -0.239258
v -0.247070 0.051025 0.234375
v 0.246094 -0.136719 0.240234
v -0.001732 -0.132812 -0.239258
v -0.000607 -0.132812 0.238281
v -0.000349 -0.123047 0.238281
v 0.500000 0.016724 -0.240234
v 0.500000 0.025757 -0.242188
v -0.000210 -0.061279 0.234375
v 0.246094 -0.067383 0.237305
v 0.247070 -0.053711 0.240234
v 0.247070 -0.056396 0.236328
v -0.249023 0.101562 -0.237305
v -0.247070 -0.078125 0.235352
v -0.500000 -0.082520 0.238281
v 0.246094 0.035889 -0.241211
v 0.500000 0.025146 -0.241211
v 0.500000 -0.025757 0.242188
v 0.500000 -0.026489 -0.242188
v 0.247070 -0.024902 0.239258
v 0.500000 -0.014832 0.241211
v 0.500000 -0.012695 0.236328
v -0.107422 0.132812 0.238281
v 0.102539 0.132812 -0.237305
v 0.101562 0.140625 -0.237305
v -0.108398 0.139648 -0.238281
v -0.109375 0.131836 -0.238281
v -0.248047 -0.045654 -0.240234
v -0.500000 -0.045166 -0.243164
v 0.246094 0.094238 0.236328
v 0.102539 -0.135742 -0.238281
v 0.102539 -0.141602 -0.238281
v -0.107910 -0.135742 -0.237305
v -0.500000 0.026245 0.241211
v -0.500000 0.016724 0.239258
v -0.500000 -0.048584 0.238281
v -0.500000 -0.062012 -0.239258
v -0.001419 0.076660 -0.234375
v 0.246094 -0.137695 -0.241211
v -0.247070 0.011658 -0.236328
v -0.248047 0.003418 -0.236328
v -0.500000 0.007233 -0.236328
v -0.000725 -0.123535 -0.239258
v -0.247070 -0.127930 -0.239258
v 0.246094 -0.128906 -0.241211
v 0.245117 -0.125000 -0.235352
v 0.247070 0.036377 0.235352
v 0.247070 0.034912 0.240234
v 0.500000 0.036621 0.241211
v 0.246094 -0.010620 -0.236328
v -0.500000 0.110352 0.240234
v -0.500000 -0.146484 0.242188
v 0.246094 0.011963 0.236328
v -0.000134 0.012268 0.234375
v 0.000000 0.001816 0.234375
v 0.245117 0.003708 0.236328
v 0.500000 0.008911 0.238281
v 0.500000 0.015747 0.239258
v 0.246094 0.015198 0.239258
v 0.500000 -0.046387 -0.243164
v 0.245117 -0.054443 -0.241211
v 0.500000 -0.036865 -0.243164
v -0.001129 0.097168 0.235352
v -0.248047 -0.013794 0.240234
v -0.000553 -0.010864 0.233398
v -0.248047 -0.011780 0.233398
v -0.500000 -0.026123 0.240234
v 0.500000 0.137695 -0.244141
v 0.500000 0.138672 0.244141
v 0.500000 0.148438 0.245117
v 0.102539 -0.141602 0.238281
v 0.102539 -0.135742 0.238281
v -0.107422 -0.135742 0.238281
v -0.500000 0.026611 -0.240234
v -0.500000 0.017700 -0.241211
v -0.500000 -0.063477 0.238281
v -0.500000 -0.074707 -0.238281
v -0.001053 0.070312 -0.234375
v -0.000504 0.051514 -0.235352
v -0.248047 0.052734 -0.236328
v 0.500000 0.001686 -0.238281
v 0.246094 -0.003265 0.234375
v 0.500000 0.001724 0.238281
v 0.500000 -0.011719 -0.238281
v -0.106934 0.143555 -0.229492
v -0.106934 0.143555 -0.236328
v -0.001076 -0.061523 -0.234375
v 0.247070 0.101074 0.238281
v 0.500000 0.111328 0.241211
v 0.500000 -0.136719 -0.242188
v -0.247070 0.023193 0.238281
v -0.500000 -0.012024 0.237305
v -0.500000 -0.011780 -0.237305
v -0.500000 -0.014160 -0.241211
v -0.500000 -0.014648 0.241211
v -0.107422 0.139648 0.237305
v 0.103516 0.140625 0.237305
v 0.246094 -0.089355 -0.237305
v 0.500000 -0.081543 -0.237305
v -0.107910 0.038574 0.245117
v -0.001007 -0.108887 0.233398
v -0.000885 -0.121582 0.234375
v -0.248047 -0.123535 0.234375
v -0.000660 0.015198 -0.240234
v 0.246094 0.024536 -0.240234
v -0.247070 -0.057617 0.235352
v -0.000957 -0.058838 0.237305
v -0.500000 0.102051 -0.240234
v -0.249023 0.094727 -0.235352
v -0.500000 0.084473 0.237305
v -0.500000 0.085449 -0.238281
v -0.247070 -0.024536 0.240234
v -0.002258 0.107910 -0.234375
v -0.247070 0.114258 -0.236328
v 0.245117 0.101562 -0.238281
v -0.000797 0.098145 -0.235352
v 0.500000 -0.110840 0.238281
v 0.246094 -0.109863 0.234375
v 0.247070 -0.097656 0.236328
v -0.500000 0.025391 0.240234
v -0.249023 0.035889 -0.241211
v -0.249023 0.025024 -0.241211
v -0.107422 -0.145508 -0.230469
v 0.102051 0.038330 -0.240234
v -0.001022 -0.058838 -0.240234
v 0.500000 -0.049072 -0.241211
v -0.248047 0.071777 0.235352
v -0.500000 0.076660 0.238281
v -0.500000 0.055664 0.238281
v -0.247070 -0.095215 -0.238281
v -0.248047 -0.077637 -0.235352
v -0.001030 -0.080078 -0.234375
v -0.000207 0.035889 0.234375
v 0.500000 -0.014404 -0.241211
v -0.000591 0.122559 0.240234
v -0.248047 0.126953 0.241211
v 0.246094 0.117188 0.241211
v -0.000481 0.122559 -0.240234
v -0.250000 0.116211 0.240234
v 0.500000 0.074219 -0.239258
v 0.500000 0.083984 0.237305
v 0.500000 0.102051 0.239258
v -0.107422 -0.141602 0.237305
v -0.107422 -0.142578 -0.237305
v -0.248047 0.025391 -0.239258
v -0.248047 0.014221 -0.239258
v -0.500000 0.014587 -0.236328
v -0.500000 -0.090332 0.238281
v -0.248047 -0.094727 0.237305
v -0.108398 0.039551 -0.239258
v 0.101562 0.144531 -0.237305
v 0.101562 0.143555 -0.230469
v 0.500000 0.136719 0.241211
v -0.500000 -0.047363 -0.240234
v -0.248047 -0.054932 -0.240234
v -0.247070 -0.056885 -0.235352
v 0.245117 0.071777 0.236328
v 0.500000 0.075195 0.238281
v 0.500000 -0.133789 -0.238281
v -0.000119 0.014160 0.237305
v -0.000645 -0.083008 0.233398
v -0.249023 -0.107910 0.235352
v -0.000706 -0.095703 0.234375
v 0.245117 0.052734 -0.237305
v 0.246094 0.036865 -0.236328
v 0.500000 0.054688 -0.238281
v 0.247070 -0.011353 0.235352
v -0.000343 -0.013367 0.239258
v -0.500000 0.138672 -0.241211
v -0.500000 0.147461 -0.243164
v -0.500000 -0.104980 -0.238281
v -0.500000 -0.119141 -0.238281
v -0.247070 0.035400 0.239258
v -0.248047 0.024292 0.239258
v 0.247070 -0.013550 -0.241211
v -0.500000 0.146484 0.244141
v -0.248047 -0.070312 0.236328
v 0.247070 -0.076172 0.234375
v -0.000496 -0.072754 0.234375
v 0.500000 0.054932 0.237305
v 0.245117 -0.123535 0.234375
v -0.248047 -0.002319 0.234375
v 0.246094 0.117676 -0.242188
v 0.247070 0.128906 -0.241211
v 0.500000 -0.074219 0.237305
v 0.500000 -0.062500 0.240234
v 0.101074 -0.144531 -0.231445
v -0.106445 -0.144531 -0.236328
v -0.107422 0.038574 -0.244141
v -0.248047 -0.024414 -0.241211
v -0.500000 -0.025879 -0.242188
v 0.246094 0.114746 0.237305
v -0.248047 0.113770 0.235352
v -0.001450 0.108887 0.233398
v -0.247070 0.098633 0.235352
v -0.248047 0.013855 0.238281
v -0.248047 0.011292 0.234375
v 0.500000 0.036377 -0.242188
v 0.500000 0.035889 -0.237305
v -0.249023 0.117188 -0.240234
v -0.001266 0.111328 -0.240234
v -0.500000 -0.137695 0.241211
v -0.001358 0.004211 -0.235352
v 0.244141 0.011963 -0.236328
v -0.001114 0.012634 -0.234375
v 0.246094 0.015625 -0.240234
v 0.500000 -0.048828 0.239258
v 0.500000 -0.046631 0.239258
v -0.248047 -0.013489 -0.240234
v 0.247070 0.127930 0.242188
v -0.000587 -0.121582 -0.234375
v -0.248047 -0.125000 -0.236328
v -0.500000 0.037109 0.237305
v -0.500000 0.037109 0.241211
v -0.247070 0.093750 0.235352
v 0.500000 -0.146484 -0.243164
v -0.500000 0.013672 0.237305
v -0.500000 0.005432 0.237305
v -0.107910 -0.145508 0.236328
v 0.500000 0.036133 0.235352
v -0.500000 0.136719 -0.240234
v -0.500000 0.110352 -0.240234
v -0.248047 -0.136719 0.239258
v -0.001839 0.090332 -0.234375
v -0.500000 -0.089844 -0.240234
v -0.500000 -0.083008 -0.238281
v -0.107910 -0.144531 0.230469
v 0.102539 0.038818 0.241211
v 0.102539 0.144531 0.232422
v -0.106934 0.143555 0.231445
v -0.107422 0.039307 0.240234
v 0.244141 0.071777 -0.236328
v -0.000479 0.023926 0.238281
v -0.001122 0.024902 -0.240234
v 0.102051 0.038330 -0.246094
v 0.101562 -0.144531 -0.236328
v 0.500000 0.025513 0.241211
v 0.246094 0.024048 0.240234
v -0.001114 -0.047607 -0.240234
v -0.500000 0.101562 0.238281
v -0.500000 -0.105957 0.239258
v -0.500000 -0.132812 0.238281
v 0.000119 0.051270 0.234375
v -0.246094 0.036621 0.235352
v 0.500000 -0.036865 0.241211
v 0.246094 -0.044434 0.240234
v 0.500000 0.147461 -0.244141
v 0.246094 -0.097656 -0.239258
v 0.500000 -0.095703 -0.239258
v -0.000771 -0.095215 -0.235352
v 0.246094 0.077148 0.235352
v 0.246094 -0.108398 -0.237305
v 0.500000 -0.109863 -0.240234
v -0.248047 0.003906 0.236328
v 0.500000 -0.096191 0.238281
v 0.500000 -0.083008 0.237305
v -0.500000 0.025757 -0.240234
v -0.001045 0.034912 -0.240234
v -0.500000 0.037109 -0.241211
v -0.248047 0.037354 -0.235352
v -0.500000 -0.074707 0.238281
v 0.103027 0.131836 0.238281
v -0.248047 -0.127930 0.239258
v 0.246094 -0.013794 0.240234
v -0.250000 0.127930 -0.241211
v 0.247070 0.052246 0.237305
v 0.500000 0.008545 -0.238281
v -0.247070 0.071777 -0.236328
v -0.500000 0.076660 -0.237305
v 0.245117 -0.003036 -0.236328
v -0.000690 0.110840 0.239258
v -0.247070 0.078125 -0.236328
v 0.246094 -0.045898 -0.241211
v -0.001640 0.036377 -0.235352
v -0.249023 -0.067871 -0.237305
v 0.000019 -0.024658 0.239258
v 0.245117 -0.089355 0.235352
vn 0.0347 -0.9994 -0.0020
vn 0.0381 -0.9993 -0.0002
vn 0.0353 -0.9994 -0.0016
vn -1.0000 -0.0000 -0.0000
vn 0.0116 -0.0000 -0.9999
vn 0.0038 0.1104 -0.9939
vn 0.0009 0.1104 -0.9939
vn -0.0018 0.1111 -0.9938
vn -0.0057 -0.0375 -0.9993
vn -0.0085 0.2802 -0.9599
vn 0.0092 0.4475 -0.8942
vn 0.0046 0.0901 -0.9959
vn 0.0029 -0.0244 -0.9997
vn -0.0067 -0.1349 -0.9908
vn -0.0079 -0.1045 -0.9945
vn -0.0080 -0.0010 -1.0000
vn -0.0077 -0.0000 -1.0000
vn -0.0098 0.0806 -0.9967
vn -0.0096 0.0806 -0.9967
vn -0.0119 -0.0000 -0.9999
vn -0.0079 -0.0000 -1.0000
vn -0.0062 -0.1171 -0.9931
vn -0.0100 0.0806 -0.9967
vn -0.0092 0.0950 -0.9954
vn 0.0083 -0.0583 0.9983
vn 0.0068 -0.0583 0.9983
vn 0.0095 -0.0571 0.9983
vn 0.0078 0.1762 0.9843
vn 0.0079 -0.0003 1.0000
vn 0.0079 -0.0001 1.0000
vn 0.0150 0.1239 0.9922
vn 0.0098 -0.0577 0.9983
vn 0.0040 0.0001 1.0000
vn 0.0037 -0.0014 1.0000
vn -0.0019 -0.0001 1.0000
vn 0.0148 0.1737 0.9847
vn 0.0036 -0.0949 0.9955
vn 0.0434 0.9991 0.0035
vn 0.0424 0.9991 0.0030
vn 0.0378 0.9993 0.0006
vn 0.0079 1.0000 0.0035
vn 0.0032 -0.1171 0.9931
vn 0.0033 -0.1171 0.9931
vn 0.0030 -0.1171 0.9931
vn 0.0035 -0.1172 0.9931
vn 1.0000 -0.0000 -0.0000
vn -0.0175 0.0687 -0.9975
vn -0.0158 0.0687 -0.9975
vn -0.0042 -0.3163 -0.9487
vn -0.0183 0.0377 -0.9991
vn -0.0046 -0.0479 0.9988
vn -0.0046 -0.0478 0.9988
vn -0.0044 -0.0477 0.9989
vn 0.0047 -1.0000 0.0010
vn 0.9581 -0.0138 0.2861
vn -0.0047 -0.0480 0.9988
vn 0.9777 -0.0123 0.2095
vn 0.0065 -0.1047 -0.9945
vn 0.0039 -0.0633 -0.9980
vn 0.0038 -0.0633 -0.9980
vn -0.0010 1.0000 -0.0000
vn 0.0368 0.9993 -0.0000
vn -0.0071 -0.0454 -0.9989
vn -0.0079 -0.0002 -1.0000
vn -0.0071 -0.0452 -0.9990
vn -0.0078 -0.0004 -1.0000
vn -0.0077 -0.0004 -1.0000
vn -0.0043 -0.2741 -0.9617
vn -0.0077 -0.2737 -0.9618
vn -0.0076 -0.2737 -0.9618
vn -0.0057 -0.1233 -0.9923
vn -0.0042 -0.2742 -0.9617
vn -0.0079 -0.0005 -1.0000
vn -0.0101 -0.0540 -0.9985
vn -0.0000 0.2170 0.9762
vn 0.7071 0.7071 -0.0000
vn -0.0000 -0.0000 1.0000
vn -0.0080 0.0002 1.0000
vn -0.0039 -0.0000 1.0000
vn 0.0291 0.8405 0.5410
vn 0.0048 -1.0000 -0.0024
vn 0.0052 -1.0000 -0.0031
vn -0.0032 -1.0000 -0.0017
vn -0.0011 -1.0000 -0.0031
vn 0.0021 -0.0915 -0.9958
vn 0.0076 -0.0915 -0.9958
vn -0.0029 -0.0951 -0.9955
vn -0.0036 -0.0932 -0.9956
vn -0.0040 -1.0000 -0.0015
vn 0.0101 -0.2248 -0.9744
vn 0.0116 -0.2248 -0.9743
vn 0.0087 -0.2248 -0.9744
vn 0.0013 0.0569 -0.9984
vn 0.0014 0.0569 -0.9984
vn 0.0021 0.0569 -0.9984
vn 0.0007 0.0570 -0.9984
vn 0.0131 -0.0350 -0.9993
vn 0.0147 -0.0712 -0.9974
vn 0.0131 -0.0351 -0.9993
vn -0.0000 -0.0000 -1.0000
vn -0.0015 -1.0000 -0.0010
vn -0.0035 -0.1713 0.9852
vn -0.0001 -0.1713 0.9852
vn -0.0072 -0.0888 0.9960
vn -0.0074 -0.0888 0.9960
vn -0.0001 -0.0895 0.9960
vn 0.0001 -0.0895 0.9960
vn -0.0274 -0.0907 -0.9955
vn -0.0031 0.3661 -0.9306
vn -0.0040 0.0003 -1.0000
vn -0.1353 0.6742 -0.7261
vn -0.0007 -1.0000 -0.0003
vn -0.0010 -1.0000 -0.0003
vn -0.0005 -1.0000 -0.0004
vn -0.0058 -1.0000 0.0002
vn -0.0627 -0.8305 0.5535
vn 0.0116 -0.0000 0.9999
vn 0.0077 -0.0920 0.9957
vn 0.0030 -0.0862 0.9963
vn 0.0074 -0.0922 0.9957
vn 0.0018 0.1183 -0.9930
vn 0.0169 -0.3484 -0.9372
vn 0.0165 -0.1774 -0.9840
vn 0.9701 0.0201 0.2419
vn -0.0004 0.0916 0.9958
vn -0.0011 0.0903 0.9959
vn -0.0039 0.0847 0.9964
vn 0.9570 0.0222 0.2893
vn -0.0047 1.0000 -0.0006
vn -0.0047 1.0000 -0.0012
vn -0.0047 1.0000 -0.0011
vn -0.0047 1.0000 -0.0005
vn 0.0145 -0.0508 0.9986
vn 0.0146 -0.0480 0.9987
vn 0.0145 -0.0525 0.9985
vn 0.0146 -0.0463 0.9988
vn -0.0000 0.0684 0.9977
vn 0.0078 0.0682 0.9976
vn 0.0038 0.0679 0.9977
vn -0.0001 0.0677 0.9977
vn -0.0000 0.0476 0.9989
vn -0.0061 0.0475 0.9989
vn -0.0120 0.0488 0.9987
vn 0.0079 -0.0467 0.9989
vn -0.0079 -0.0000 1.0000
vn 0.0158 -0.9999 -0.0000
vn 0.0159 -0.9999 -0.0000
vn 0.0038 -0.0000 1.0000
vn -0.0158 -0.9999 -0.0000
vn -0.0165 -0.9999 0.0003
vn -0.0191 -0.9998 0.0016
vn 0.0040 -0.0001 1.0000
vn 0.0032 -0.7303 -0.6831
vn 0.0021 -0.7300 -0.6834
vn -0.0064 -0.7279 -0.6857
vn 0.0009 -0.2114 -0.9774
vn -0.0105 -0.2322 -0.9726
vn 0.0101 -0.7670 0.6416
vn 0.0142 -0.8240 0.5664
vn 0.0181 -0.8239 0.5664
vn 0.0143 -0.8240 0.5664
vn -0.0098 0.0891 0.9960
vn -0.0096 0.0894 0.9959
vn -0.0113 0.0896 0.9959
vn 0.0103 -0.8240 0.5664
vn -0.0132 0.0897 0.9959
vn -0.0137 0.0712 0.9974
vn 0.0072 -0.0507 -0.9987
vn 0.0090 0.0619 -0.9980
vn 0.0104 0.0928 -0.9956
vn 0.0038 -0.2747 -0.9615
vn 0.0107 -0.2747 -0.9615
vn 0.0142 0.0745 -0.9971
vn 0.0117 -0.0000 -0.9999
vn -0.0024 -1.0000 -0.0005
vn -0.0038 -0.0956 -0.9954
vn -0.0040 -0.0956 -0.9954
vn -0.0112 0.0891 0.9960
vn -0.0042 -0.0879 0.9961
vn -0.0021 -0.0877 0.9961
vn -0.0022 -0.0877 0.9961
vn 0.0022 0.9161 0.4009
vn 0.0046 0.0006 -1.0000
vn 0.7161 0.4172 -0.5596
vn 0.0417 -0.9990 -0.0185
vn -1.0000 0.0003 0.0021
vn 0.0046 -0.0006 -1.0000
vn -0.0047 1.0000 -0.0000
vn -0.9923 0.1241 0.0038
vn 0.0058 -0.0000 -1.0000
vn -0.0024 0.0020 -1.0000
vn 0.0118 0.1104 -0.9938
vn -0.0084 -0.0570 0.9983
vn -0.0106 -0.0570 0.9983
vn -0.0066 -0.2295 0.9733
vn -0.0063 -0.2304 0.9731
vn 0.0030 -0.2300 0.9732
vn -0.0027 -0.2744 0.9616
vn -0.0061 -0.0570 0.9984
vn -0.0082 -0.1075 0.9942
vn -0.0070 -0.2738 0.9618
vn -0.0110 -0.0476 0.9988
vn -0.0190 0.1532 0.9880
vn 0.0325 -0.9995 -0.0000
vn 0.0326 -0.9995 -0.0000
vn 0.0046 -1.0000 -0.0000
vn -0.0046 -0.0000 -1.0000
vn -0.0046 -0.0003 -1.0000
vn 0.0089 -0.2009 0.9796
vn 0.0039 -0.0004 1.0000
vn 0.0002 -0.0000 1.0000
vn 0.0037 -0.0003 1.0000
vn -0.0029 -0.5390 0.8423
vn -0.0269 -0.8968 0.4417
vn -0.0255 -0.8318 0.5545
vn 0.0079 0.0004 -1.0000
vn 0.0079 -0.0001 -1.0000
vn 0.0082 0.0007 -1.0000
vn 0.0080 0.0002 -1.0000
vn -0.0346 -0.9994 0.0020
vn -0.0197 -0.9998 0.0020
vn 0.0069 -0.5503 -0.8349
vn -0.0014 -0.3198 -0.9475
vn 0.0070 -0.2464 -0.9691
vn -0.0023 -0.2089 -0.9779
vn -0.0087 -0.7541 -0.6567
vn 0.0080 -0.0552 -0.9984
vn -0.0020 0.1104 -0.9939
vn 0.0035 0.0001 -1.0000
vn -0.0078 0.0009 -1.0000
vn -0.0077 0.0002 -1.0000
vn 0.0138 0.8330 -0.5531
vn 0.0114 0.9283 -0.3716
vn 0.0003 0.2941 -0.9558
vn -0.0673 0.1320 -0.9890
vn 0.0040 -0.0004 -1.0000
vn -0.0166 0.9285 -0.3709
vn -0.0076 0.9578 0.2874
vn -0.0053 0.9578 0.2874
vn -1.0000 0.0001 -0.0000
vn 0.0010 0.9965 -0.0830
vn -0.0002 0.8575 -0.5146
vn -0.0077 -0.0003 -1.0000
vn -0.0076 -0.0005 -1.0000
vn -0.0689 -0.9031 0.4240
vn 0.0199 -0.0384 0.9991
vn 0.0387 -0.9992 0.0001
vn -0.0093 -0.1415 0.9899
vn -0.0059 -0.2094 0.9778
vn 0.0016 -0.6451 0.7641
vn -0.0024 -0.0253 0.9997
vn -0.0078 0.0009 1.0000
vn -0.0078 0.0006 1.0000
vn -0.0077 0.0006 1.0000
vn -0.0064 -0.4173 0.9087
vn 0.0015 -0.6713 0.7412
vn -0.0080 0.0009 1.0000
vn -0.0077 0.0006 -1.0000
vn -0.0040 -0.0000 -1.0000
vn 0.0124 -0.5882 -0.8086
vn 0.0032 -0.2290 0.9734
vn -0.0079 -0.0003 1.0000
vn 0.0112 0.7856 0.6186
vn -0.0006 0.7258 0.6879
vn 0.0037 0.2438 0.9698
vn -0.0002 0.8213 0.5704
vn -0.5808 0.4579 0.6730
vn -0.0891 -0.7375 0.6694
vn 0.0039 0.0004 1.0000
vn 0.2248 0.6488 0.7270
vn 0.0117 -0.2425 -0.9701
vn 0.0612 -0.8305 -0.5536
vn -0.0000 1.0000 -0.0000
vn -0.0279 0.9996 -0.0000
vn -0.0278 0.9996 0.0009
vn -0.0305 0.9995 0.0008
vn 0.0044 0.1090 -0.9940
vn 0.0048 1.0000 0.0008
vn 0.0078 -0.0000 1.0000
vn 0.0098 0.0759 0.9971
vn 0.0053 0.0766 0.9971
vn 0.0097 0.0762 0.9970
vn -0.0082 0.0510 -0.9987
vn -0.0082 0.0509 -0.9987
vn 0.0041 0.0524 -0.9986
vn 0.0042 0.0520 -0.9986
vn 0.0078 -0.0004 -1.0000
vn -0.0080 0.0016 -1.0000
vn -0.0069 0.0453 -0.9989
vn -0.0077 -0.0000 1.0000
vn -0.0095 -0.2709 0.9626
vn -0.0126 -0.1342 0.9909
vn -0.9797 0.0194 -0.1997
vn -0.0058 0.0811 -0.9967
vn -0.0051 0.0825 -0.9966
vn -0.0086 0.0757 -0.9971
vn -0.9999 0.0141 -0.0000
vn -0.0092 0.0743 -0.9972
vn 0.0157 -0.9090 -0.4164
vn -0.0155 -0.9089 -0.4167
vn 0.0072 0.1738 -0.9848
vn 0.0074 0.1737 -0.9848
vn 0.0115 0.1730 -0.9848
vn 0.0093 0.0947 -0.9955
vn -0.0154 -0.0000 0.9999
vn -0.0030 -0.2060 0.9785
vn -0.0144 0.0702 0.9974
vn -0.0038 -0.0000 -1.0000
vn -0.0059 -0.0000 -1.0000
vn 0.0224 0.8336 -0.5520
vn -0.0119 -0.0676 -0.9976
vn 0.0223 0.7998 -0.5998
vn 0.0121 0.9999 0.0046
vn -0.0030 1.0000 0.0046
vn 0.0014 1.0000 0.0026
vn -0.0022 1.0000 0.0041
vn -0.0003 0.8540 -0.5203
vn -0.0036 0.6994 -0.7147
vn 0.0371 0.9993 -0.0001
vn -0.0046 1.0000 -0.0000
vn 0.0005 0.1103 0.9939
vn -0.0007 0.1413 0.9900
vn 0.9462 -0.3237 -0.0056
vn -0.0060 -0.2425 -0.9701
vn -0.0027 0.0866 -0.9962
vn -0.0101 0.2290 -0.9734
vn -0.0365 0.1130 -0.9929
vn -0.0011 0.1366 -0.9906
vn -0.0041 -0.0003 -1.0000
vn -0.9950 -0.0033 -0.0998
vn -0.9950 -0.0037 -0.0998
vn -0.9951 -0.0041 -0.0991
vn -0.0046 0.0834 0.9965
vn -0.9951 0.0047 -0.0987
vn -0.0236 0.7431 0.6688
vn -0.0006 0.0767 0.9971
vn -0.0021 0.0767 0.9971
vn 0.0076 -0.0619 0.9981
vn 0.0076 -0.0653 0.9978
vn 0.0076 -0.0707 0.9975
vn -0.0059 0.7433 0.6690
vn 0.0177 -0.0613 0.9980
vn -0.0057 0.5145 0.8575
vn -0.0017 1.0000 0.0010
vn 0.0003 1.0000 0.0005
vn -0.0056 1.0000 0.0006
vn 0.0002 1.0000 0.0016
vn -0.0089 -0.7694 0.6387
vn -0.0070 -0.2001 0.9797
vn -0.0074 -0.2001 0.9798
vn 0.0047 -0.2015 0.9795
vn -0.0080 -0.8952 0.4456
vn 0.0052 -0.2015 0.9795
vn 0.0094 0.0598 -0.9982
vn 0.0052 0.0595 -0.9982
vn 0.0092 0.0601 -0.9982
vn 0.0159 -0.1168 -0.9930
vn 0.0045 -0.1104 -0.9939
vn -0.0391 -0.9992 -0.0005
vn 0.0063 -1.0000 -0.0005
vn -0.0015 -0.3474 -0.9377
vn -0.0183 -0.8623 -0.5061
vn -0.0132 0.0976 -0.9951
vn 0.0214 -0.8651 -0.5011
vn -0.0140 0.0688 -0.9975
vn -0.0115 0.0008 0.9999
vn 0.0027 0.3085 0.9512
vn 0.0027 0.3086 0.9512
vn -0.0155 -0.0395 0.9991
vn -0.0036 0.0767 0.9970
vn -0.0154 -0.1562 0.9876
vn -0.0158 -0.1567 0.9875
vn -0.0048 -0.1571 0.9876
vn -0.0045 -0.1576 0.9875
vn -0.0031 -1.0000 -0.0009
vn -0.0029 -1.0000 -0.0008
vn 0.0001 -0.0000 -1.0000
vn 0.0039 -0.0000 -1.0000
vn -0.0039 -0.0000 -1.0000
vn -0.0039 -1.0000 -0.0015
vn 0.0047 0.0477 0.9989
vn 0.0047 0.0477 0.9988
vn 0.0049 0.0475 0.9989
vn 0.0039 -0.9865 -0.1639
vn 0.0045 0.0480 0.9988
vn -0.9859 -0.0131 -0.1666
vn 0.0154 -0.9295 -0.3686
vn 0.0193 -0.9297 -0.3678
vn 0.0151 -0.9294 -0.3687
vn -0.0020 -0.0000 -1.0000
vn 0.0196 -0.9297 -0.3679
vn 0.0049 -0.1280 -0.9918
vn 0.0119 0.0646 -0.9978
vn 0.0083 0.1648 -0.9863
vn 0.0111 0.1650 -0.9862
vn 0.0084 0.1648 -0.9863
vn 0.0055 0.1647 -0.9863
vn -0.0030 0.9578 0.2874
vn -0.0040 0.0001 1.0000
vn 0.0001 -0.0000 1.0000
vn -0.0108 -0.1201 0.9927
vn -0.0006 -0.1202 0.9927
vn -0.0113 -0.1221 0.9924
vn -0.0001 -0.1221 0.9925
vn 0.0025 0.7373 -0.6756
vn -0.0018 -0.0897 0.9960
vn -0.0054 -0.0859 0.9963
vn -0.0050 -0.0901 0.9959
vn 0.0209 0.9998 0.0004
vn 0.0185 0.9998 0.0017
vn 0.0178 0.9998 0.0020
vn -0.0018 -0.0830 0.9965
vn -0.0250 0.9997 0.0003
vn -0.0223 0.9998 0.0017
vn -0.0256 0.9997 -0.0000
vn 0.0215 0.9998 -0.0000
vn -0.0217 0.9998 0.0020
vn 0.0051 0.0763 0.9971
vn -0.0104 0.1105 -0.9938
vn -0.0046 -0.1643 0.9864
vn -0.0000 -1.0000 0.0021
vn 0.0078 -0.0000 -1.0000
vn -0.0075 -0.8432 -0.5376
vn 0.0059 0.1165 0.9932
vn 0.0100 0.1160 0.9932
vn 0.0081 0.1164 0.9932
vn 0.0050 0.0624 0.9980
vn 1.0000 0.0046 0.0005
vn 1.0000 0.0046 0.0003
vn 1.0000 0.0046 0.0007
vn 0.9990 -0.0017 0.0454
vn 0.9950 -0.0005 0.0994
vn 0.0041 -0.0924 0.9957
vn 0.0046 -0.0934 0.9956
vn 0.0042 -0.0926 0.9957
vn 1.0000 -0.0027 -0.0000
vn 1.0000 0.0046 -0.0000
vn -0.0061 -1.0000 0.0013
vn -0.0067 -1.0000 0.0015
vn 0.0007 0.9900 0.1413
vn 0.0047 -0.0936 0.9956
vn 0.0016 -0.9162 -0.4008
vn -0.0040 -0.0002 -1.0000
vn 0.0651 -0.8461 0.5290
vn 0.0639 -0.8304 0.5535
vn 0.0158 -0.3162 0.9485
vn 0.0158 -0.3163 0.9485
vn -0.0099 0.0861 -0.9962
vn -0.0132 0.0642 -0.9979
vn -0.0279 -0.9300 -0.3665
vn -0.0155 -0.9294 -0.3687
vn -0.0272 -0.9300 -0.3666
vn 0.0168 -0.0665 -0.9976
vn -0.0240 -0.7998 -0.5997
vn -0.0101 0.1803 0.9836
vn -0.0116 0.1805 0.9835
vn -0.0117 0.1808 0.9834
vn -0.0070 -0.0481 0.9988
vn -0.0100 0.1805 0.9835
vn -0.0010 0.0500 0.9988
vn -0.0116 0.0477 0.9988
vn -0.0005 0.0499 0.9988
vn 1.0000 -0.0055 0.0041
vn -0.0042 0.0995 -0.9950
vn 0.0095 0.2408 0.9705
vn 0.1399 -0.6401 0.7554
vn 0.0121 0.0767 0.9970
vn 0.0126 -0.1474 0.9890
vn 0.0142 -0.1476 0.9890
vn 0.0112 -0.1474 0.9890
vn 0.0102 0.1162 0.9932
vn 0.0111 -0.1473 0.9890
vn -0.0034 -0.0518 -0.9986
vn -0.0041 -0.0617 -0.9981
vn -0.0010 0.9984 0.0561
vn -0.0029 0.2258 -0.9742
vn -0.0076 -0.0619 -0.9981
vn -0.0042 0.0510 -0.9987
vn -0.0018 0.8946 0.4469
vn -0.0080 -0.0765 0.9970
vn -0.0030 0.3903 0.9207
vn -0.0039 -0.0909 -0.9958
vn 0.0017 -0.0903 -0.9959
vn -0.0037 -0.0908 -0.9959
vn 0.0429 0.9991 0.0020
vn 0.0430 0.9991 0.0020
vn -0.0093 -0.2169 -0.9761
vn -0.0348 -0.4471 -0.8938
vn -0.0008 0.9790 0.2038
vn 0.0005 0.9790 0.2041
vn 0.0021 0.9789 0.2042
vn -0.0040 0.0003 1.0000
vn 0.0036 0.0004 1.0000
vn -0.0036 0.0010 1.0000
vn -0.0010 0.9790 0.2039
vn 0.0033 -0.1714 0.9852
vn 0.0773 0.9970 0.0017
vn 0.0079 -0.0002 1.0000
vn 0.0023 -0.0949 0.9955
vn 0.0024 -0.0949 0.9955
vn -0.0013 -0.0948 0.9955
vn -0.0119 0.0003 0.9999
vn 0.0066 -0.1231 0.9924
vn 0.0068 -0.1226 0.9924
vn 0.0095 -0.1221 0.9925
vn -0.0044 -0.3167 0.9485
vn -0.0046 -0.3167 0.9485
vn -0.0084 -0.3171 0.9484
vn 0.0060 -0.0949 0.9955
vn -0.0110 -0.0500 -0.9987
vn 0.0287 0.8019 0.5968
vn 0.0074 0.9366 0.3503
vn 0.0111 0.8008 0.5988
vn 0.0006 -0.2028 0.9792
vn -0.0180 0.0882 -0.9959
vn -0.0020 -0.1577 -0.9875
vn 0.0015 -0.3475 -0.9377
vn -0.0070 0.0440 -0.9990
vn 0.0676 -0.9310 -0.3588
vn -0.0062 0.0872 -0.9962
vn 0.0210 -0.9297 -0.3677
vn -0.0085 -0.3171 0.9484
vn -0.0065 -0.2425 0.9701
vn -0.0116 -0.0000 0.9999
vn -0.0001 0.0001 -1.0000
vn -0.0039 0.0003 -1.0000
vn -0.0019 0.0001 -1.0000
vn 0.0036 -0.0633 -0.9980
vn -0.0000 -0.0426 -0.9991
vn -0.0000 -1.0000 -0.0000
vn -0.9810 -0.0135 -0.1934
vn 0.0028 -0.1168 -0.9932
vn 0.0098 -0.0570 0.9983
vn 0.0058 -1.0000 -0.0003
vn 0.0046 -1.0000 -0.0004
vn 0.0034 0.0831 -0.9965
vn 0.0036 0.0874 -0.9962
vn 0.0034 0.0848 -0.9964
vn -0.0087 -0.2746 0.9615
vn -0.0135 0.0589 0.9982
vn 0.0079 0.0005 1.0000
vn 0.0083 -0.0002 1.0000
vn 0.0192 0.0005 0.9998
vn -0.0163 -0.9479 0.3180
vn 0.0010 0.1645 0.9864
vn 0.0175 -0.9492 0.3141
vn -0.0053 -0.0943 -0.9955
vn -0.0102 -0.1370 -0.9905
vn 0.0008 -0.8361 0.5486
vn 0.0032 -0.8361 0.5486
vn 0.0040 -0.0993 0.9950
vn -0.0015 -0.8361 0.5486
vn -0.0084 -0.0737 0.9972
vn -0.0059 0.0768 0.9970
vn -0.0090 0.0766 0.9970
vn -0.0060 0.0754 0.9971
vn 0.0076 -0.0741 0.9972
vn -0.0069 0.1152 0.9933
vn -0.0071 0.1151 0.9933
vn -0.0075 0.1150 0.9933
vn -0.0058 0.3418 -0.9397
vn -0.0037 -0.0867 -0.9962
vn 0.0028 0.9755 -0.2198
vn -0.0056 -0.2704 0.9627
vn -0.0013 -0.0649 0.9979
vn -0.0024 -0.0066 1.0000
vn -0.0633 -0.8133 -0.5784
vn 0.0154 -0.0000 -0.9999
vn -0.0190 -0.8043 -0.5939
vn 0.0034 0.1105 0.9939
vn -0.0077 0.1171 -0.9931
vn -0.0078 0.1212 -0.9926
vn -0.0077 0.1195 -0.9928
vn -0.0060 0.1217 -0.9926
vn -0.0039 0.0001 -1.0000
vn -0.0038 -0.0002 -1.0000
vn -0.0076 0.1154 -0.9933
vn -0.0075 -0.7276 -0.6859
vn 0.0039 -0.0000 1.0000
vn 0.0083 -0.1611 0.9869
vn 0.0017 -0.1243 -0.9922
vn 0.0036 0.0891 -0.9960
vn 0.0022 0.5775 -0.8164
vn -0.0042 -0.0902 0.9959
vn 0.0176 -0.8478 0.5300
vn -0.0031 -0.0994 0.9950
vn 0.0091 -0.0903 -0.9959
vn -0.0042 0.7064 -0.7078
vn 0.0019 1.0000 -0.0000
vn 0.0058 -0.0000 1.0000
vn 0.0244 -0.1153 0.9930
vn 0.0053 0.2556 0.9668
vn -0.0000 -0.9864 -0.1645
vn -1.0000 0.0026 0.0004
vn -0.0024 0.3752 0.9269
vn -0.0008 0.4864 0.8738
vn 0.0077 -0.0000 1.0000
vn 0.0093 -0.1961 0.9805
vn 0.0050 0.0593 -0.9982
vn 0.0071 -0.0831 0.9965
vn 0.0039 -0.0003 1.0000
vn 0.0053 0.2747 -0.9615
vn 0.0088 0.1280 -0.9917
vn 0.0088 0.1279 -0.9918
vn 0.0046 0.0533 -0.9986
vn 0.0002 0.0583 -0.9983
vn 0.0048 0.0530 -0.9986
vn -0.0000 0.0585 -0.9983
vn 0.0044 -0.0829 -0.9966
vn 0.0046 -0.0833 -0.9965
vn 0.0048 -0.0837 -0.9965
vn -0.0033 0.0806 -0.9967
vn -0.9950 -0.0037 -0.0994
vn -0.0115 0.0023 -0.9999
vn -0.0042 0.3882 0.9215
vn -0.0094 -0.0533 -0.9985
vn -0.0191 0.7061 -0.7079
vn -0.0190 0.7047 -0.7092
vn -0.0192 0.7070 -0.7070
vn -0.0189 0.7038 -0.7101
vn 0.0004 -0.1961 0.9806
vn -0.0055 -0.1096 0.9940
vn -0.0078 -0.1096 0.9939
vn -0.0075 -0.0997 0.9950
vn -0.0032 -0.1096 0.9940
vn -0.0069 1.0000 0.0036
vn 0.0088 -0.2169 0.9762
vn 0.0153 -0.0364 0.9992
vn 0.0040 0.9542 0.2993
vn 0.0084 0.9538 0.3002
vn 0.0044 0.9542 0.2993
vn -0.0039 -0.0004 1.0000
vn -0.0040 -0.0004 1.0000
vn -0.0038 -0.0004 1.0000
vn -0.0808 0.9967 -0.0020
vn -0.0796 0.9968 -0.0014
vn -0.0743 0.9972 0.0013
vn 0.0014 -0.1789 -0.9839
vn -0.0158 0.0002 -0.9999
vn -0.0060 -0.1789 -0.9839
vn 0.0088 0.9538 0.3003
vn -0.0147 -0.9294 -0.3688
vn -0.0106 0.1104 0.9938
vn 0.9967 -0.0815 0.0039
vn -0.0116 -0.0256 -0.9996
vn -1.0000 -0.0002 0.0010
vn -0.0001 -0.0875 0.9962
vn 0.0035 -0.0644 0.9979
vn 0.0162 -0.2993 0.9540
vn -0.0083 0.1148 0.9933
vn -0.0095 0.0738 0.9972
vn -0.0095 0.0749 0.9971
vn -0.0004 -0.0857 -0.9963
vn 0.0043 0.9700 -0.2433
vn 0.0042 0.9700 -0.2432
vn 0.0038 0.9700 -0.2432
vn 0.0049 0.9580 -0.2869
vn -0.0045 0.9575 -0.2883
vn 0.0046 0.9578 -0.2873
vn 0.0047 0.9699 -0.2433
vn -0.0141 -0.1644 -0.9863
vn -0.0046 -1.0000 0.0021
vn -0.0170 0.9354 0.3532
vn 0.0098 -0.1227 0.9924
vn -0.0049 0.9576 -0.2880
vn 0.0030 0.8942 0.4477
vn 0.0020 -0.0904 -0.9959
vn 0.0779 0.9970 0.0020
vn -0.0111 0.0688 -0.9976
vn -0.9975 -0.0712 0.0001
vn -0.0062 0.0748 0.9972
vn 0.0048 0.0464 -0.9989
vn 0.0077 -0.0004 -1.0000
vn 0.0011 -0.1033 0.9946
vn -0.0014 -0.1357 -0.9908
vn -0.0176 -0.8971 0.4415
vn 0.0194 0.0012 0.9998
vn -0.0058 1.0000 0.0005
vn -0.0731 0.9973 0.0020
vn 0.0050 -0.0840 -0.9965
vn -0.0347 0.9994 -0.0025
vn -0.0307 0.9995 -0.0004
vn -0.0356 0.9994 -0.0030
vn -0.0298 0.9996 -0.0000
vn -0.0198 0.9998 -0.0030
vn -0.0027 0.9806 -0.1960
vn 0.0117 0.1730 -0.9849
vn 0.0046 -1.0000 -0.0021
vn 0.0048 -0.1952 -0.9808
vn 0.0068 -0.1954 -0.9807
vn 0.0091 -0.1952 -0.9807
vn 0.0060 -0.0767 -0.9970
vn 0.0046 -0.1956 -0.9807
vt 0.383106 0.610210
vt 0.313655 0.632776
vt 0.338903 0.477626
vt 0.287437 0.384865
vt 0.287437 0.524360
vt 0.285183 0.384901
vt 0.525150 0.198640
vt 0.525527 0.194340
vt 0.665233 0.201146
vt 0.421287 0.326833
vt 0.421287 0.466592
vt 0.418752 0.466305
vt 0.454351 0.193441
vt 0.454351 0.333546
vt 0.449476 0.333203
vt 0.873512 0.708079
vt 0.734820 0.708079
vt 0.873776 0.704566
vt 0.269309 0.244971
vt 0.276160 0.384567
vt 0.264037 0.245901
vt 0.153030 0.016494
vt 0.081514 0.016494
vt 0.081878 0.014419
vt 0.252805 0.421316
vt 0.247445 0.421785
vt 0.254027 0.282337
vt 0.272815 0.245172
vt 0.735464 0.712337
vt 0.423498 0.164956
vt 0.563261 0.164956
vt 0.423491 0.168704
vt 0.670530 0.896408
vt 0.531629 0.896408
vt 0.669786 0.889657
vt 0.971410 0.553464
vt 0.967555 0.553464
vt 0.964802 0.414642
vt 0.059265 0.621909
vt 0.062580 0.719551
vt 0.059265 0.719602
vt 0.875036 0.172343
vt 0.881589 0.171769
vt 0.879917 0.311547
vt 0.347859 0.808606
vt 0.208569 0.808606
vt 0.208684 0.804740
vt 0.055183 0.719467
vt 0.195143 0.050547
vt 0.332440 0.050547
vt 0.195038 0.059855
vt 0.141282 0.746521
vt 0.138238 0.747629
vt 0.137672 0.609093
vt 0.438183 0.173251
vt 0.578009 0.173251
vt 0.577891 0.177583
vt 0.429927 0.182050
vt 0.439062 0.182849
vt 0.430046 0.321875
vt 0.946420 0.057373
vt 0.848477 0.057373
vt 0.848840 0.050576
vt 0.584853 0.169066
vt 0.445078 0.169066
vt 0.583764 0.166066
vt 0.693107 0.602941
vt 0.553213 0.602941
vt 0.553463 0.597255
vt 0.254790 0.243830
vt 0.254790 0.104636
vt 0.328134 0.244235
vt 0.545307 0.201903
vt 0.701994 0.201903
vt 0.669331 0.265713
vt 0.945957 0.596101
vt 0.941256 0.596512
vt 0.948833 0.457462
vt 0.653050 0.111731
vt 0.513290 0.111731
vt 0.652526 0.107111
vt 0.939924 0.713224
vt 0.871656 0.691042
vt 0.914511 0.558611
vt 0.628873 0.980616
vt 0.490852 0.984806
vt 0.627968 0.978130
vt 0.610645 0.617308
vt 0.750494 0.617308
vt 0.750249 0.625087
vt 0.628796 0.988014
vt 0.517111 0.098795
vt 0.517111 0.103855
vt 0.377885 0.103771
vt 0.230059 0.114152
vt 0.187017 0.246622
vt 0.216506 0.110100
vt 0.028151 0.167124
vt 0.028151 0.056625
vt 0.083233 0.104929
vt 0.099531 0.025471
vt 0.021278 0.000045
vt 0.100900 0.023083
vt 0.323047 0.029954
vt 0.427199 0.029954
vt 0.426974 0.032853
vt 0.000530 0.514942
vt 0.058842 0.557308
vt 0.010542 0.623919
vt 0.540352 0.062560
vt 0.540352 0.058621
vt 0.643652 0.064539
vt 0.473576 0.977922
vt 0.611176 0.977922
vt 0.473221 0.983315
vt 0.311878 0.065249
vt 0.174666 0.065249
vt 0.174383 0.059874
vt 0.484364 0.094948
vt 0.484364 0.084639
vt 0.623585 0.086362
vt 0.277066 0.563967
vt 0.277066 0.703453
vt 0.268567 0.702927
vt 0.154196 0.526916
vt 0.154196 0.387696
vt 0.156894 0.526926
vt 0.655892 0.260440
vt 0.506522 0.308973
vt 0.518088 0.237150
vt 0.355457 0.419977
vt 0.355457 0.280500
vt 0.357988 0.280219
vt 0.713904 0.629786
vt 0.574123 0.629786
vt 0.713570 0.626839
vt 0.055126 0.698534
vt 0.049719 0.601339
vt 0.055126 0.601270
vt 0.859454 0.181315
vt 0.719545 0.181315
vt 0.858470 0.171482
vt 0.275313 0.982057
vt 0.412624 0.982057
vt 0.274814 0.986049
vt 0.058230 0.601740
vt 0.425730 0.480393
vt 0.429591 0.481074
vt 0.424188 0.620195
vt 0.487921 0.995993
vt 0.487921 0.985852
vt 0.625917 0.993311
vt 0.861908 0.438682
vt 0.861908 0.578492
vt 0.852028 0.578241
vt 0.368719 0.451381
vt 0.368719 0.311622
vt 0.373675 0.451381
vt 0.404046 0.074676
vt 0.542961 0.074676
vt 0.404890 0.075471
vt 0.891047 0.784548
vt 0.751741 0.784548
vt 0.751907 0.779731
vt 0.619726 0.611853
vt 0.620834 0.609933
vt 0.759568 0.611600
vt 0.374813 0.099048
vt 0.235589 0.099048
vt 0.235927 0.096242
vt 0.513185 0.708437
vt 0.513635 0.710990
vt 0.374000 0.705104
vt 0.464407 0.338400
vt 0.464407 0.182699
vt 0.527742 0.215720
vt 0.567618 0.810728
vt 0.545541 0.878673
vt 0.413246 0.835402
vt 0.254852 0.578333
vt 0.254852 0.438840
vt 0.260850 0.578277
vt 0.980683 0.568684
vt 0.974666 0.568684
vt 0.980604 0.429844
vt 0.172170 0.797547
vt 0.304010 0.840384
vt 0.149376 0.865849
vt 0.133970 0.518794
vt 0.141300 0.518794
vt 0.140929 0.657359
vt 0.585411 0.165930
vt 0.725188 0.165930
vt 0.585511 0.173128
vt 0.454732 0.564659
vt 0.445294 0.563833
vt 0.445170 0.424546
vt 0.161105 0.073200
vt 0.299585 0.073200
vt 0.160670 0.082835
vt 0.439772 0.187979
vt 0.447338 0.328213
vt 0.439772 0.327884
vt 0.809953 0.043099
vt 0.711637 0.043099
vt 0.712018 0.036881
vt 0.431955 0.327537
vt 0.750509 0.811483
vt 0.611879 0.811483
vt 0.751222 0.738075
vt 0.253456 0.121257
vt 0.253456 0.260490
vt 0.247034 0.260318
vt 0.747364 0.099807
vt 0.886591 0.099807
vt 0.747923 0.105786
vt 0.368876 0.309527
vt 0.362724 0.310065
vt 0.363143 0.170308
vt 0.873678 0.694434
vt 0.734173 0.704890
vt 0.734529 0.698551
vt 0.282913 0.245069
vt 0.286994 0.383668
vt 0.276889 0.245076
vt 0.873685 0.700478
vt 0.773751 0.350490
vt 0.773751 0.507214
vt 0.710057 0.474253
vt 0.289225 0.726635
vt 0.289225 0.587444
vt 0.360922 0.727080
vt 0.664709 0.725941
vt 0.642538 0.794177
vt 0.509972 0.750822
vt 0.093816 0.939012
vt 0.091885 0.938843
vt 0.097516 0.800929
vt 0.148395 0.244280
vt 0.148395 0.105082
vt 0.148955 0.105363
vt 0.949006 0.614448
vt 0.949006 0.475630
vt 0.953840 0.614655
vt 0.238691 0.418834
vt 0.242161 0.279400
vt 0.239273 0.418003
vt 0.375652 0.415561
vt 0.373121 0.415561
vt 0.375371 0.275803
vt 0.514316 0.072806
vt 0.652448 0.072806
vt 0.653005 0.078814
vt 0.311699 0.053315
vt 0.311975 0.052558
vt 0.448360 0.052180
vt 0.719890 0.091655
vt 0.719890 0.082536
vt 0.859109 0.084629
vt 0.429118 0.034319
vt 0.292453 0.034319
vt 0.292177 0.029960
vt 0.180774 0.632424
vt 0.180774 0.493188
vt 0.182327 0.632425
vt 0.779214 0.991748
vt 0.917057 0.991748
vt 0.779925 0.996476
vt 0.247441 0.400660
vt 0.247441 0.261264
vt 0.253541 0.262095
vt 0.146490 0.011190
vt 0.086976 0.011190
vt 0.146587 0.008928
vt 0.425698 0.976292
vt 0.294010 0.933504
vt 0.446913 0.908890
vt 0.108078 0.013302
vt 0.168174 0.013302
vt 0.167644 0.016139
vt 0.976122 0.745590
vt 0.978698 0.744899
vt 0.981680 0.883658
vt 0.116685 0.590502
vt 0.116685 0.728682
vt 0.113443 0.728929
vt 0.149864 0.103104
vt 0.153065 0.103104
vt 0.153865 0.242333
vt 0.109106 0.720296
vt 0.107064 0.720304
vt 0.107064 0.581953
vt 0.110797 0.720290
vt 0.179058 0.375904
vt 0.179058 0.515165
vt 0.168832 0.514970
vt 0.962544 0.804022
vt 0.951097 0.804022
vt 0.953359 0.665065
vt 0.284404 0.532633
vt 0.284404 0.672074
vt 0.276440 0.532538
vt 0.348348 0.984858
vt 0.348348 0.992943
vt 0.210533 0.994043
vt 0.612477 0.037376
vt 0.710880 0.037376
vt 0.710792 0.045549
vt 0.126628 0.747127
vt 0.949193 0.754487
vt 0.949193 0.615483
vt 0.954144 0.615562
vt 0.841458 0.350970
vt 0.841458 0.507224
vt 0.778267 0.474354
vt 0.875023 0.157098
vt 0.946861 0.157098
vt 0.946029 0.296287
vt 0.856725 0.068246
vt 0.953874 0.068246
vt 0.856902 0.072088
vt 0.448974 0.799305
vt 0.310349 0.799305
vt 0.449710 0.727683
vt 0.749412 0.060097
vt 0.749750 0.063966
vt 0.651133 0.064535
vt 0.422005 0.620684
vt 0.422005 0.480886
vt 0.424904 0.482022
vt 0.498433 0.894821
vt 0.359740 0.894821
vt 0.498454 0.889772
vt 0.790106 0.974039
vt 0.928736 0.974039
vt 0.790676 0.976403
vt 0.816939 0.111541
vt 0.816939 0.116134
vt 0.677173 0.114565
vt 0.232158 0.082499
vt 0.371375 0.082499
vt 0.370759 0.085312
vt 0.298909 0.457870
vt 0.301541 0.457406
vt 0.296104 0.597059
vt 0.670014 0.067944
vt 0.767670 0.067944
vt 0.767380 0.069446
vt 0.982163 0.709080
vt 0.982163 0.847839
vt 0.979564 0.709149
vt 0.209116 0.684748
vt 0.209116 0.545380
vt 0.215320 0.684080
vt 0.799765 0.152164
vt 0.799765 0.154835
vt 0.659999 0.151838
vt 0.242560 0.134544
vt 0.248608 0.134015
vt 0.245939 0.273247
vt 0.361197 0.879462
vt 0.499941 0.879462
vt 0.499752 0.886976
vt 0.980974 0.374630
vt 0.988161 0.375260
vt 0.988161 0.513496
vt 0.977001 0.374897
vt 0.987382 0.870865
vt 0.983454 0.870865
vt 0.988087 0.732178
vt 0.732608 0.704957
vt 0.593835 0.704957
vt 0.733447 0.697889
vt 0.797923 0.891720
vt 0.936612 0.891720
vt 0.936621 0.896307
vt 0.810070 0.159961
vt 0.810070 0.164278
vt 0.670303 0.157533
vt 0.086950 0.903193
vt 0.086950 0.765109
vt 0.089203 0.903158
vt 0.512223 0.999757
vt 0.374995 0.999757
vt 0.374431 0.997790
vt 0.069015 0.459086
vt 0.066761 0.459086
vt 0.069156 0.321582
vt 0.810070 0.155644
vt 0.188734 0.975843
vt 0.115486 0.975843
vt 0.116017 0.837209
vt 0.097061 0.026242
vt 0.168569 0.026242
vt 0.096887 0.029205
vt 0.520673 0.098955
vt 0.521160 0.093391
vt 0.659896 0.098069
vt 0.281014 0.712496
vt 0.277867 0.712771
vt 0.277919 0.573294
vt 0.262780 0.290644
vt 0.262780 0.430161
vt 0.259301 0.429795
vt 0.964365 0.702129
vt 0.964365 0.563328
vt 0.970375 0.701895
vt 0.544924 0.076362
vt 0.406009 0.076362
vt 0.543517 0.075748
vt 0.788968 0.164255
vt 0.649207 0.164255
vt 0.649768 0.158119
vt 0.374322 0.094221
vt 0.374322 0.097143
vt 0.235099 0.094939
vt 0.528060 0.353433
vt 0.587967 0.360639
vt 0.587967 0.362901
vt 0.098374 0.950784
vt 0.098374 0.812709
vt 0.100350 0.813020
vt 0.300408 0.398846
vt 0.300408 0.259657
vt 0.305578 0.399322
vt 0.219333 0.917715
vt 0.350634 0.960377
vt 0.200887 0.975808
vt 0.235510 0.100182
vt 0.235510 0.102468
vt 0.097169 0.102116
vt 0.370244 0.078910
vt 0.231327 0.078910
vt 0.370202 0.073691
vt 0.594272 0.106206
vt 0.594272 0.101080
vt 0.733500 0.106476
vt 0.884692 0.366009
vt 0.884692 0.226241
vt 0.889597 0.226238
vt 0.148858 0.866624
vt 0.287845 0.866624
vt 0.149074 0.876261
vt 0.940685 0.736350
vt 0.940685 0.597310
vt 0.945478 0.597625
vt 0.762017 0.616765
vt 0.622183 0.616765
vt 0.761352 0.612872
vt 0.376413 0.102828
vt 0.376413 0.093442
vt 0.515638 0.097246
vt 0.890571 0.799139
vt 0.751234 0.799139
vt 0.751630 0.789183
vt 0.366994 0.446754
vt 0.363015 0.447455
vt 0.360267 0.307697
vt 0.448985 0.915420
vt 0.587326 0.915420
vt 0.449268 0.976370
vt 0.448985 0.913719
vt 0.895144 0.956400
vt 0.978261 0.956400
vt 0.895209 0.958713
vt 0.979871 0.938556
vt 0.896170 0.938556
vt 0.895988 0.935830
vt 0.174657 0.515744
vt 0.174657 0.655011
vt 0.169308 0.515874
vt 0.406360 0.077078
vt 0.545553 0.077078
vt 0.544137 0.077976
vt 0.388216 0.873531
vt 0.526909 0.873531
vt 0.527388 0.878677
vt 0.352408 0.707887
vt 0.351919 0.705114
vt 0.491555 0.711471
vt 0.144030 0.616201
vt 0.142035 0.616201
vt 0.142410 0.477518
vt 0.089354 0.988764
vt 0.227133 0.988764
vt 0.089924 0.989646
vt 0.735487 0.127632
vt 0.735487 0.135861
vt 0.595720 0.132624
vt 0.679826 0.171274
vt 0.819683 0.171274
vt 0.819080 0.173672
vt 0.236061 0.995683
vt 0.373851 0.995683
vt 0.373559 0.999901
vt 0.360597 0.811081
vt 0.221322 0.811081
vt 0.360621 0.809135
vt 0.825794 0.968715
vt 0.824963 0.968133
vt 0.963555 0.971514
vt 0.073046 0.582102
vt 0.073046 0.719665
vt 0.068760 0.582222
vt 0.869149 0.060877
vt 0.869369 0.063398
vt 0.771455 0.065718
vt 0.064464 0.719695
vt 0.064464 0.582072
vt 0.068019 0.582142
vt 0.768489 0.067440
vt 0.865957 0.067440
vt 0.768633 0.069950
vt 0.867687 0.923678
vt 0.965483 0.923678
vt 0.867887 0.929119
vt 0.289250 0.452024
vt 0.332263 0.319643
vt 0.358934 0.475254
vt 0.800164 0.429269
vt 0.751744 0.280250
vt 0.822838 0.291362
vt 0.901800 0.554259
vt 0.898202 0.415702
vt 0.901800 0.415937
vt 0.874072 0.624600
vt 0.874072 0.484821
vt 0.878136 0.484892
vt 0.899613 0.554818
vt 0.873858 0.106814
vt 0.734091 0.106814
vt 0.873302 0.104668
vt 0.906431 0.554827
vt 0.575677 0.704545
vt 0.576077 0.699977
vt 0.715294 0.697811
vt 0.978686 0.605536
vt 0.978686 0.744317
vt 0.973718 0.744051
vt 0.897447 0.035201
vt 0.799978 0.035201
vt 0.897765 0.031531
vt 0.373496 0.868718
vt 0.512156 0.868718
vt 0.512667 0.872695
vt 0.944178 0.040749
vt 0.944142 0.042826
vt 0.847130 0.042826
vt 0.672083 0.031434
vt 0.671437 0.035098
vt 0.573746 0.030162
vt 0.532622 0.047284
vt 0.630842 0.047284
vt 0.532554 0.049380
vt 0.982901 0.859598
vt 0.982901 0.720873
vt 0.985696 0.720935
vt 0.830042 0.727697
vt 0.830042 0.731086
vt 0.690566 0.731015
vt 0.376665 0.314076
vt 0.376665 0.453834
vt 0.376525 0.315770
vt 0.292353 0.300356
vt 0.292353 0.439871
vt 0.289100 0.440076
vt 0.317381 0.791568
vt 0.317381 0.794792
vt 0.178694 0.794780
vt 0.985685 0.911456
vt 0.846994 0.911456
vt 0.985642 0.905031
vt 0.949134 0.893931
vt 0.949134 0.755235
vt 0.952240 0.893370
vt 0.974462 0.261042
vt 0.974462 0.399900
vt 0.967148 0.399546
vt 0.684554 0.082561
vt 0.684918 0.086722
vt 0.545700 0.083621
vt 0.246589 0.417889
vt 0.151125 0.498090
vt 0.151125 0.637337
vt 0.148188 0.636087
vt 0.292368 0.884322
vt 0.292368 0.898308
vt 0.153658 0.896531
vt 0.595469 0.626071
vt 0.456559 0.626071
vt 0.455562 0.553027
vt 0.148254 0.566674
vt 0.148254 0.427438
vt 0.152040 0.427479
vt 0.974779 0.544111
vt 0.972835 0.405375
vt 0.978725 0.405375
vt 0.776228 0.718102
vt 0.776626 0.722643
vt 0.637015 0.715532
vt 0.972319 0.544157
vt 0.152140 0.642735
vt 0.152140 0.503487
vt 0.154533 0.642690
vt 0.580207 0.612488
vt 0.720088 0.612488
vt 0.580954 0.617149
vt 0.201205 0.778343
vt 0.340503 0.778343
vt 0.339822 0.782991
vt 0.158077 0.865167
vt 0.297271 0.865167
vt 0.158641 0.865942
vt 0.242509 0.250794
vt 0.244323 0.250794
vt 0.246696 0.390030
vt 0.369578 0.247834
vt 0.372326 0.247834
vt 0.372326 0.387593
vt 0.254733 0.384031
vt 0.254733 0.244527
vt 0.257534 0.245144
vt 0.936620 0.906673
vt 0.797924 0.906673
vt 0.936610 0.901472
vt 0.839535 0.051358
vt 0.839239 0.054745
vt 0.741426 0.050260
vt 0.962984 0.074291
vt 0.962146 0.083870
vt 0.824063 0.073147
vt 0.512404 0.726972
vt 0.373019 0.726972
vt 0.512653 0.721017
vt 0.886347 0.484333
vt 0.882186 0.623770
vt 0.882332 0.484333
vt 0.478834 0.084462
vt 0.478834 0.088400
vt 0.339615 0.086291
vt 0.168466 0.198290
vt 0.171067 0.337497
vt 0.168466 0.337510
vt 0.162103 0.337530
vt 0.892397 0.484898
vt 0.885776 0.623887
vt 0.269363 0.414700
vt 0.269363 0.553826
vt 0.264045 0.414280
vt 0.862691 0.577992
vt 0.862691 0.438200
vt 0.865474 0.438540
vt 0.271284 0.414796
vt 0.285294 0.579799
vt 0.285294 0.440319
vt 0.285854 0.578963
vt 0.364756 0.310641
vt 0.367546 0.310641
vt 0.367825 0.450399
vt 0.985901 0.581468
vt 0.987602 0.581468
vt 0.985901 0.719808
vt 0.126756 0.579260
vt 0.084007 0.447690
vt 0.142195 0.429082
vt 0.032025 0.000073
vt 0.114688 0.000073
vt 0.032025 0.002380
vt 0.779947 0.999817
vt 0.629768 0.984378
vt 0.761113 0.941851
vt 0.500860 0.352056
vt 0.503391 0.352640
vt 0.454968 0.483765
vt 0.292869 0.089572
vt 0.153647 0.089572
vt 0.292847 0.084619
vt 0.431840 0.328306
vt 0.710926 0.090371
vt 0.710926 0.096577
vt 0.571704 0.094149
vt 0.652983 0.727027
vt 0.513710 0.727027
vt 0.513356 0.719980
vt 0.222339 0.038374
vt 0.359604 0.038374
vt 0.222415 0.041607
vt 0.078373 0.586054
vt 0.078373 0.723563
vt 0.074718 0.723271
vt 0.079268 0.746355
vt 0.079268 0.843930
vt 0.071861 0.747105
vt 0.750314 0.065083
vt 0.750314 0.057586
vt 0.848803 0.060926
vt 0.937112 0.890972
vt 0.798414 0.890972
vt 0.799716 0.880372
vt 0.915914 0.987786
vt 0.777903 0.990520
vt 0.778467 0.987786
vt 0.777979 0.977095
vt 0.788969 0.117019
vt 0.788969 0.120960
vt 0.649206 0.118106
vt 0.073631 0.719663
vt 0.073631 0.582104
vt 0.077497 0.582213
vt 0.705141 0.107682
vt 0.844908 0.107682
vt 0.844351 0.111650
vt 0.167629 0.498571
vt 0.167629 0.637837
vt 0.159652 0.498743
vt 0.080168 0.884642
vt 0.080168 0.746860
vt 0.082246 0.884642
vt 0.355682 0.043882
vt 0.354955 0.048009
vt 0.218410 0.042276
vt 0.074307 0.465465
vt 0.069799 0.465465
vt 0.074951 0.327960
vt 0.198148 0.002849
vt 0.138947 0.002849
vt 0.139696 0.000095
vt 0.042054 0.279408
vt 0.042054 0.339326
vt 0.011430 0.339335
vt 0.168973 0.012870
vt 0.210397 0.012870
vt 0.168897 0.015590
vt 0.074435 0.789992
vt 0.074435 0.883217
vt 0.036948 0.808726
vt 0.856013 0.068889
vt 0.856013 0.071444
vt 0.758805 0.071245
vt 0.659375 0.071450
vt 0.561430 0.071450
vt 0.659367 0.068884
vt 0.284035 0.392203
vt 0.284035 0.531742
vt 0.277790 0.530473
vt 0.648425 0.063634
vt 0.648425 0.059533
vt 0.747061 0.059035
vt 0.157661 0.151676
vt 0.171583 0.151676
vt 0.159535 0.290915
vt 0.391653 0.060135
vt 0.392354 0.057519
vt 0.528857 0.064659
vt 0.981456 0.580936
vt 0.981456 0.442126
vt 0.986650 0.580718
vt 0.168267 0.909245
vt 0.306073 0.916219
vt 0.168267 0.916498
vt 0.875701 0.210528
vt 0.875701 0.350316
vt 0.868165 0.349669
vt 0.191409 0.706053
vt 0.191409 0.566764
vt 0.196226 0.705905
vt 0.707496 0.603418
vt 0.706819 0.599579
vt 0.846665 0.598447
vt 0.757075 0.138591
vt 0.757075 0.143548
vt 0.617312 0.140794
vt 0.157865 0.509367
vt 0.157865 0.648625
vt 0.155187 0.648631
vt 0.189866 0.241619
vt 0.195136 0.241158
vt 0.187101 0.380530
vt 0.080043 0.269705
vt 0.122536 0.138925
vt 0.149103 0.292871
vt 0.640988 0.977298
vt 0.618912 0.909356
vt 0.772648 0.934814
vt 0.892338 0.206120
vt 0.892338 0.345891
vt 0.889801 0.206155
vt 0.174238 0.999979
vt 0.310901 0.999310
vt 0.310623 0.999979
vt 0.500392 0.878668
vt 0.361683 0.878668
vt 0.361238 0.874031
vt 0.184331 0.452806
vt 0.183673 0.453947
vt 0.180242 0.315074
vt 0.312023 0.998549
vt 0.096154 0.032605
vt 0.233372 0.032605
vt 0.096405 0.093591
vt 0.705845 0.596641
vt 0.565990 0.596641
vt 0.705304 0.590798
vt 0.570626 0.630354
vt 0.430867 0.630354
vt 0.430846 0.625779
vt 0.095872 0.030060
vt 0.421002 0.320882
vt 0.421002 0.181081
vt 0.425416 0.320775
vt 0.486643 0.051314
vt 0.349962 0.051314
vt 0.350001 0.048784
vt 0.323540 0.066977
vt 0.324141 0.069222
vt 0.186654 0.071394
vt 0.275681 0.524896
vt 0.271007 0.385467
vt 0.275681 0.385607
vt 0.153156 0.099395
vt 0.153156 0.091558
vt 0.292379 0.090497
vt 0.283458 0.385311
vt 0.404172 0.042030
vt 0.267506 0.042030
vt 0.404722 0.037951
vt 0.182510 0.029328
vt 0.123182 0.029328
vt 0.181869 0.026609
vt 0.033006 0.887525
vt 0.033006 0.804330
vt 0.074943 0.887396
vt 0.428340 0.033326
vt 0.428096 0.030541
vt 0.532159 0.034719
vt 0.434393 0.563146
vt 0.434393 0.423115
vt 0.438031 0.562936
vt 0.847706 0.056751
vt 0.749448 0.056751
vt 0.749457 0.051689
vt 0.973486 0.554030
vt 0.973486 0.692811
vt 0.964689 0.554000
vt 0.846545 0.921986
vt 0.846545 0.918302
vt 0.985153 0.922719
vt 0.434674 0.619714
vt 0.425973 0.619714
vt 0.430965 0.479894
vt 0.187093 0.566047
vt 0.187093 0.426717
vt 0.190237 0.426593
vt 0.194021 0.620955
vt 0.194021 0.481650
vt 0.199502 0.481597
vt 0.138366 0.000117
vt 0.138366 0.002703
vt 0.066737 0.002827
vt 0.796472 0.906998
vt 0.927788 0.949666
vt 0.773389 0.976220
vt 0.360251 0.888636
vt 0.498948 0.888636
vt 0.360228 0.893503
vt 0.219517 0.773124
vt 0.219517 0.701360
vt 0.358992 0.773125
vt 0.531492 0.049338
vt 0.433377 0.049338
vt 0.531785 0.047816
vt 0.735787 0.049013
vt 0.638109 0.049013
vt 0.735247 0.045197
vt 0.985139 0.966628
vt 0.846559 0.966628
vt 0.847138 0.964186
vt 0.647214 0.059715
vt 0.647554 0.063602
vt 0.548716 0.058086
vt 0.482740 0.064531
vt 0.345794 0.064531
vt 0.345523 0.059610
vt 0.356748 0.043244
vt 0.493504 0.043244
vt 0.356349 0.048022
vt 0.267469 0.693654
vt 0.267469 0.554871
vt 0.276692 0.554138
vt 0.509296 0.044879
vt 0.509075 0.047406
vt 0.372942 0.048349
vt 0.498445 0.896510
vt 0.498445 0.905747
vt 0.359749 0.901412
vt 0.859165 0.604012
vt 0.719344 0.604012
vt 0.859020 0.599128
vt 0.931928 0.862537
vt 0.793013 0.862537
vt 0.931928 0.789704
vt 0.932208 0.865841
vt 0.822300 0.039846
vt 0.919792 0.039846
vt 0.821959 0.042554
vt 0.821621 0.035955
vt 0.771982 0.031435
vt 0.869824 0.031435
vt 0.772665 0.035298
vt 0.660103 0.071097
vt 0.660573 0.068428
vt 0.757955 0.071415
vt 0.800845 0.879488
vt 0.939587 0.879488
vt 0.939343 0.887440
vt 0.153799 0.890935
vt 0.153596 0.883422
vt 0.292429 0.883422
vt 0.890551 0.810507
vt 0.751255 0.810507
vt 0.889636 0.802840
vt 0.234531 0.131248
vt 0.234531 0.270616
vt 0.221308 0.270397
vt 0.930636 0.048385
vt 0.833349 0.048385
vt 0.833418 0.043372
vt 0.170711 0.338133
vt 0.170711 0.477373
vt 0.163931 0.338659
vt 0.423655 0.328398
vt 0.430614 0.327789
vt 0.425285 0.467599
vt 0.724621 0.443850
vt 0.567332 0.443850
vt 0.690760 0.379507
vt 0.964328 0.193064
vt 0.970413 0.193064
vt 0.969866 0.331960
vt 0.652200 0.907450
vt 0.790881 0.907450
vt 0.652218 0.913453
vt 0.082990 0.688606
vt 0.164311 0.800535
vt 0.105694 0.843288
vt 0.665912 0.182081
vt 0.822312 0.182081
vt 0.789670 0.245789
vt 0.042339 0.999816
vt 0.042339 0.888800
vt 0.097995 0.951422
vt 0.151950 0.019690
vt 0.151647 0.021411
vt 0.091426 0.019315
vt 0.024550 0.706694
vt 0.072933 0.773288
vt 0.014898 0.816368
vt 0.405445 0.037352
vt 0.509668 0.037352
vt 0.406147 0.040665
vt 0.409757 0.997291
vt 0.547554 0.997291
vt 0.547524 0.999274
vt 0.085630 0.076982
vt 0.085630 0.214764
vt 0.083654 0.076698
vt 0.325256 0.800332
vt 0.464170 0.800332
vt 0.324839 0.805164
vt 0.982594 0.708509
vt 0.979624 0.707985
vt 0.979906 0.569705
vt 0.834126 0.049331
vt 0.736532 0.049331
vt 0.736575 0.044879
vt 0.705184 0.605043
vt 0.844440 0.605043
vt 0.704628 0.607911
vt 0.793613 0.866657
vt 0.932589 0.866657
vt 0.794351 0.878191
vt 0.114670 0.976292
vt 0.108588 0.976292
vt 0.114670 0.838232
vt 0.736271 0.625901
vt 0.596408 0.625901
vt 0.596731 0.617474
vt 0.722450 0.036479
vt 0.820730 0.036479
vt 0.820456 0.042520
vt 0.868754 0.185010
vt 0.868754 0.324804
vt 0.858920 0.185743
vt 0.141938 0.294495
vt 0.151978 0.294495
vt 0.143112 0.433179
vt 0.193292 0.443776
vt 0.193292 0.583220
vt 0.190417 0.443767
vt 0.195695 0.258805
vt 0.195695 0.398212
vt 0.187033 0.397874
vt 0.167658 0.655502
vt 0.158642 0.655502
vt 0.159390 0.516235
vt 0.798423 0.896990
vt 0.937110 0.896990
vt 0.798415 0.905757
vt 0.087972 0.742501
vt 0.090143 0.742501
vt 0.089828 0.880659
vt 0.128958 0.998140
vt 0.265899 0.998140
vt 0.128115 0.998916
vt 0.186291 0.557938
vt 0.186291 0.696231
vt 0.180245 0.697214
vt 0.196418 0.378561
vt 0.196418 0.239622
vt 0.202502 0.239201
vt 0.506132 0.469859
vt 0.506132 0.312771
vt 0.569923 0.437123
vt 0.973375 0.826244
vt 0.966762 0.826244
vt 0.971581 0.687495
vt 0.673972 0.584813
vt 0.518374 0.584813
vt 0.551184 0.521664
vt 0.592375 0.671349
vt 0.725023 0.628249
vt 0.747665 0.697070
vt 0.889915 0.625657
vt 0.867783 0.693774
vt 0.735207 0.649545
vt 0.511921 0.037405
vt 0.611239 0.037406
vt 0.512079 0.042084
vt 0.954745 0.337783
vt 0.947611 0.338407
vt 0.951255 0.199375
vt 0.082534 0.863493
vt 0.082534 0.725319
vt 0.087731 0.726092
vt 0.153544 0.286986
vt 0.148713 0.286986
vt 0.150216 0.147754
vt 0.382167 0.068912
vt 0.518020 0.068912
vt 0.381882 0.071422
vt 0.539548 0.058980
vt 0.539548 0.064148
vt 0.403043 0.057049
vt 0.982132 0.033320
vt 0.898633 0.033320
vt 0.898698 0.030959
vt 0.120589 0.581399
vt 0.059639 0.581399
vt 0.058999 0.443626
vt 0.241795 0.105011
vt 0.198753 0.237482
vt 0.192944 0.235396
vt 0.183886 0.454916
vt 0.183886 0.594152
vt 0.180687 0.454961
vt 0.768291 0.725182
vt 0.629050 0.725182
vt 0.628667 0.715937
vt 0.063592 0.582170
vt 0.063592 0.719739
vt 0.059077 0.582027
vt 0.086335 0.789160
vt 0.086335 0.927228
vt 0.081968 0.926660
vt 0.885606 0.088903
vt 0.885606 0.097554
vt 0.746386 0.091293
vt 0.206911 0.012227
vt 0.147358 0.012227
vt 0.147799 0.008381
vt 0.532613 0.053997
vt 0.429534 0.056761
vt 0.429594 0.053997
vt 0.027974 0.363745
vt 0.067708 0.350834
vt 0.054540 0.442591
vt 0.532684 0.050698
vt 0.152837 0.021370
vt 0.152635 0.019063
vt 0.194764 0.018865
vt 0.913176 0.085114
vt 0.986307 0.085114
vt 0.988198 0.224013
vt 0.685828 0.507160
vt 0.528598 0.507160
vt 0.562348 0.442300
vt 0.104237 0.005632
vt 0.164154 0.005632
vt 0.164163 0.007616
vt 0.824638 0.522262
vt 0.853756 0.584706
vt 0.699237 0.578676
vt 0.628600 0.794248
vt 0.489395 0.794248
vt 0.628859 0.790640
vt 0.893331 0.554857
vt 0.892746 0.415996
vt 0.432001 0.492119
vt 0.432001 0.351948
vt 0.434535 0.351845
vt 0.167431 0.917056
vt 0.462663 0.334808
vt 0.460739 0.334976
vt 0.456422 0.195313
vt 0.917789 0.415721
vt 0.925794 0.415721
vt 0.919512 0.554839
vt 0.858360 0.050238
vt 0.956164 0.050238
vt 0.955783 0.056239
vt 0.772576 0.174168
vt 0.633295 0.174168
vt 0.632723 0.171268
vt 0.265283 0.465697
vt 0.265283 0.604331
vt 0.264649 0.464855
vt 0.570392 0.604141
vt 0.710275 0.604141
vt 0.570707 0.612247
vt 0.859913 0.431283
vt 0.857882 0.431283
vt 0.862432 0.291484
vt 0.142008 0.617433
vt 0.145084 0.616891
vt 0.141963 0.755533
vt 0.434875 0.178209
vt 0.574939 0.178209
vt 0.574208 0.189309
vt 0.790938 0.170532
vt 0.651163 0.170532
vt 0.790367 0.167545
vt 0.361733 0.727024
vt 0.362673 0.716289
vt 0.501368 0.716057
vt 0.204742 0.407410
vt 0.204742 0.269108
vt 0.215769 0.408518
vt 0.688734 0.991265
vt 0.687582 0.992071
vt 0.550717 0.987320
vt 0.746875 0.099109
vt 0.746875 0.093727
vt 0.886099 0.098629
vt 0.294896 0.455487
vt 0.294896 0.595104
vt 0.289009 0.455435
vt 0.970870 0.405421
vt 0.296859 0.455475
vt 0.650987 0.035161
vt 0.552653 0.035161
vt 0.552644 0.030099
vt 0.540942 0.589547
vt 0.680844 0.589547
vt 0.541801 0.596910
vt 0.940408 0.878564
vt 0.801496 0.878564
vt 0.939404 0.869228
vt 0.610726 0.803922
vt 0.611379 0.811387
vt 0.472036 0.806664
vt 0.236077 0.099619
vt 0.375307 0.099619
vt 0.375226 0.109901
vt 0.216583 0.411465
vt 0.222156 0.272048
vt 0.225251 0.410707
vt 0.102202 0.025365
vt 0.101799 0.020759
vt 0.173471 0.023128
vt 0.579581 0.185273
vt 0.578672 0.174884
vt 0.718679 0.179211
vt 0.257924 0.283292
vt 0.257924 0.422335
vt 0.254833 0.422793
vt 0.875022 0.624100
vt 0.985695 0.065065
vt 0.888201 0.065065
vt 0.985484 0.060058
vt 0.967598 0.034060
vt 0.967504 0.036568
vt 0.870479 0.036568
vt 0.940852 0.586704
vt 0.940852 0.448437
vt 0.946783 0.447643
vt 0.574500 0.704534
vt 0.435284 0.704534
vt 0.575020 0.702004
vt 0.118348 0.090229
vt 0.117914 0.085273
vt 0.256472 0.083961
vt 0.549150 0.870105
vt 0.688338 0.870105
vt 0.549245 0.871308
vt 0.124956 0.578094
vt 0.121070 0.579357
vt 0.082110 0.447140
vt 0.948098 0.682064
vt 0.944726 0.682359
vt 0.948307 0.543353
vt 0.090860 0.927272
vt 0.090860 0.789644
vt 0.097069 0.789117
vt 0.296338 0.244943
vt 0.296338 0.384596
vt 0.292965 0.245259
vt 0.217140 0.558621
vt 0.217140 0.698003
vt 0.210731 0.558995
vt 0.792817 0.914501
vt 0.654658 0.914501
vt 0.793330 0.908365
vt 0.256062 0.425569
vt 0.213135 0.557686
vt 0.187019 0.402569
vt 0.593937 0.043497
vt 0.593937 0.038922
vt 0.692618 0.044984
vt 0.832596 0.043884
vt 0.832596 0.047940
vt 0.735118 0.043816
vt 0.982316 0.072424
vt 0.885202 0.072424
vt 0.982105 0.067910
vt 0.973998 0.708034
vt 0.973998 0.569199
vt 0.978407 0.569794
vt 0.258680 0.718662
vt 0.258680 0.579179
vt 0.263891 0.579797
vt 0.748620 0.056762
vt 0.650301 0.056762
vt 0.748473 0.052659
vt 0.472290 0.978516
vt 0.472290 0.984170
vt 0.334384 0.977557
vt 0.161133 0.065977
vt 0.298632 0.065977
vt 0.161412 0.071412
vt 0.349102 0.985303
vt 0.487012 0.985303
vt 0.486478 0.991144
vt 0.664738 0.193749
vt 0.524664 0.193749
vt 0.664031 0.183091
vt 0.154275 0.879428
vt 0.854909 0.917727
vt 0.951765 0.917727
vt 0.951549 0.919369
vt 0.985138 0.581982
vt 0.985138 0.720287
vt 0.981006 0.581480
vt 0.381174 0.071477
vt 0.243949 0.071477
vt 0.381145 0.069347
vt 0.390981 0.058848
vt 0.253768 0.058848
vt 0.253777 0.056461
vt 0.619278 0.117472
vt 0.759037 0.125148
vt 0.619278 0.122830
vt 0.478752 0.093654
vt 0.438309 0.416688
vt 0.444419 0.417765
vt 0.442168 0.556816
vt 0.957324 0.174304
vt 0.963627 0.312866
vt 0.957324 0.312550
vt 0.437647 0.371631
vt 0.437647 0.511207
vt 0.434777 0.371031
vt 0.950996 0.173886
vt 0.960287 0.174767
vt 0.103994 0.836615
vt 0.103994 0.973842
vt 0.100619 0.835775
vt 0.179912 0.548126
vt 0.179912 0.687399
vt 0.174847 0.686734
vt 0.739387 0.096786
vt 0.739387 0.103410
vt 0.600161 0.100423
vt 0.359256 0.895530
vt 0.497957 0.895530
vt 0.359293 0.900349
vt 0.263849 0.431121
vt 0.263849 0.570485
vt 0.255287 0.430988
vt 0.988117 0.234781
vt 0.988117 0.373659
vt 0.979499 0.373167
vt 0.198261 0.790317
vt 0.199005 0.781813
vt 0.337558 0.784067
vt 0.006379 0.195783
vt 0.079440 0.195783
vt 0.005938 0.278702
vt 0.123003 0.004889
vt 0.040883 0.004889
vt 0.041076 0.002962
vt 0.448394 0.068133
vt 0.345031 0.068133
vt 0.345542 0.065331
vt 0.530074 0.068258
vt 0.628414 0.068258
vt 0.530209 0.071584
vt 0.751244 0.800003
vt 0.890562 0.800003
vt 0.751584 0.809419
vt 0.290465 0.054074
vt 0.427149 0.054074
vt 0.290221 0.056328
vt 0.791732 0.833211
vt 0.791732 0.905910
vt 0.652822 0.906730
vt 0.648633 0.157681
vt 0.648633 0.164204
vt 0.508874 0.158535
vt 0.180306 0.454308
vt 0.164762 0.497992
vt 0.158079 0.497992
vt 0.163897 0.358730
vt 0.791492 0.977131
vt 0.929313 0.977131
vt 0.928600 0.985577
vt 0.551675 0.032193
vt 0.551890 0.034661
vt 0.453507 0.030108
vt 0.870105 0.059951
vt 0.967972 0.059951
vt 0.870178 0.064681
vt 0.168222 0.497466
vt 0.944332 0.047082
vt 0.948423 0.737189
vt 0.948423 0.876170
vt 0.938980 0.737177
vt 0.706978 0.590399
vt 0.299648 0.417000
vt 0.297015 0.417000
vt 0.299282 0.277308
vt 0.488333 0.718041
vt 0.627958 0.718041
vt 0.627760 0.723568
vt 0.145054 0.433847
vt 0.145054 0.572532
vt 0.142483 0.433857
vt 0.881306 0.963574
vt 0.881306 0.958368
vt 0.978851 0.965087
vt 0.058197 0.443251
vt 0.058197 0.540066
vt 0.053186 0.443402
vt 0.533507 0.050126
vt 0.632342 0.050126
vt 0.533882 0.055369
vt 0.258691 0.384077
vt 0.258691 0.244480
vt 0.263390 0.245622
vt 0.771186 0.999778
vt 0.769773 0.999901
vt 0.633132 0.998136
vt 0.154648 0.906302
vt 0.154648 0.900144
vt 0.293340 0.905990
vt 0.154665 0.908982
vt 0.907338 0.553342
vt 0.907338 0.415216
vt 0.911424 0.553853
vt 0.857052 0.357217
vt 0.857052 0.497542
vt 0.854430 0.358469
vt 0.873329 0.485305
vt 0.873329 0.625097
vt 0.858761 0.624872
vt 0.221419 0.911040
vt 0.220412 0.908272
vt 0.359078 0.914594
vt 0.270265 0.413090
vt 0.265397 0.413516
vt 0.263592 0.273923
vt 0.621495 0.788081
vt 0.620673 0.789504
vt 0.482038 0.790427
vt 0.069463 0.011150
vt 0.068849 0.008859
vt 0.140670 0.007496
vt 0.883210 0.483772
vt 0.882339 0.344000
vt 0.887521 0.482617
vt 0.147629 0.104661
vt 0.147629 0.243229
vt 0.142852 0.242943
vt 0.071901 0.011982
vt 0.143098 0.011982
vt 0.071328 0.013534
vt 0.448075 0.911709
vt 0.448075 0.910505
vt 0.586763 0.914387
vt 0.112049 0.727174
vt 0.112049 0.588822
vt 0.112681 0.727174
vt 0.829871 0.967145
vt 0.967982 0.967145
vt 0.968461 0.970539
vt 0.292079 0.940148
vt 0.292967 0.936303
vt 0.424800 0.977338
vt 0.642034 0.056343
vt 0.642310 0.053194
vt 0.740694 0.050624
vt 0.293491 0.092579
vt 0.293491 0.086518
vt 0.432711 0.092161
vt 0.280839 0.383854
vt 0.842033 0.502210
vt 0.842033 0.361381
vt 0.847859 0.500947
vt 0.957487 0.613176
vt 0.957487 0.474164
vt 0.960080 0.613123
vt 0.455394 0.335599
vt 0.641087 0.055880
vt 0.542427 0.055880
vt 0.641009 0.051578
vt 0.370879 0.081890
vt 0.232147 0.081890
vt 0.231673 0.079543
vt 0.418255 0.324870
vt 0.420406 0.324870
vt 0.417180 0.464629
vt 0.355282 0.447172
vt 0.153809 0.030039
vt 0.291235 0.030039
vt 0.291219 0.032767
vt 0.306722 0.105675
vt 0.376300 0.128282
vt 0.332083 0.260861
vt 0.619291 0.130811
vt 0.619276 0.126507
vt 0.154154 0.899106
vt 0.292853 0.899106
vt 0.292810 0.903642
vt 0.975082 0.883644
vt 0.975082 0.744914
vt 0.979285 0.883537
vt 0.967983 0.914668
vt 0.967983 0.917030
vt 0.884323 0.917030
vt 0.511106 0.041639
vt 0.407441 0.041638
vt 0.510628 0.038342
vt 0.207587 0.060103
vt 0.344915 0.060103
vt 0.344133 0.065511
vt 0.227970 0.410634
vt 0.916018 0.554362
vt 0.854241 0.622850
vt 0.853678 0.627331
vt 0.714454 0.627331
vt 0.274247 0.979082
vt 0.274247 0.986644
vt 0.136450 0.986644
vt 0.441652 0.190908
vt 0.446508 0.190483
vt 0.448437 0.330616
vt 0.704005 0.878565
vt 0.564887 0.878565
vt 0.703733 0.873643
vt 0.448082 0.905044
vt 0.095454 0.081559
vt 0.095454 0.219090
vt 0.086096 0.219716
vt 0.733650 0.386958
vt 0.685145 0.237674
vt 0.755974 0.248994
vt 0.471530 0.807454
vt 0.332199 0.807454
vt 0.471277 0.800986
vt 0.377743 0.818318
vt 0.239058 0.818318
vt 0.238547 0.812202
vt 0.254682 0.579474
vt 0.258076 0.579177
vt 0.255362 0.718664
vt 0.198393 0.527232
vt 0.202321 0.527325
vt 0.202321 0.666585
vt 0.042829 0.349836
vt 0.042829 0.238486
vt 0.097995 0.286888
vt 0.058691 0.555258
vt 0.000191 0.512755
vt 0.048892 0.445724
vt 0.963502 0.339178
vt 0.963502 0.478291
vt 0.893220 0.339368
vt 0.513331 0.897081
vt 0.652027 0.897081
vt 0.513378 0.903704
vt 0.165068 0.007171
vt 0.164898 0.005225
vt 0.206545 0.005096
vt 0.585543 0.994801
vt 0.723354 0.994801
vt 0.723584 0.997348
vt 0.445079 0.169915
vt 0.584853 0.169915
vt 0.584294 0.172577
vt 0.859656 0.204312
vt 0.859656 0.360458
vt 0.795889 0.237051
vt 0.558380 0.811539
vt 0.419049 0.811539
vt 0.558324 0.810149
vt 0.724638 0.363197
vt 0.017183 0.000020
vt 0.096164 0.025683
vt 0.073592 0.094680
vt 0.237921 0.277928
vt 0.237921 0.417361
vt 0.234110 0.417163
vt 0.800866 0.609339
vt 0.801274 0.611656
vt 0.661435 0.608658
vt 0.172441 0.454799
vt 0.172441 0.315576
vt 0.177902 0.315564
vt 0.949649 0.462860
vt 0.954670 0.462860
vt 0.954480 0.601909
vt 0.965338 0.405304
vt 0.481360 0.800799
vt 0.620701 0.800799
vt 0.481561 0.805677
vt 0.672871 0.035601
vt 0.672871 0.031131
vt 0.771192 0.033487
vt 0.148367 0.776617
vt 0.148367 0.637425
vt 0.220131 0.776707
vt 0.891042 0.787899
vt 0.751745 0.787899
vt 0.751828 0.785212
vt 0.751808 0.774019
vt 0.891048 0.774019
vt 0.751740 0.778974
vt 0.092099 0.443860
vt 0.089594 0.444531
vt 0.086017 0.306205
vt 0.295962 0.911006
vt 0.295962 0.896157
vt 0.434657 0.909850
vt 0.925887 0.999944
vt 0.788049 0.999944
vt 0.925391 0.992206
vt 0.686245 0.999916
vt 0.548851 0.999916
vt 0.548298 0.997631
vt 0.685477 0.879424
vt 0.686232 0.888055
vt 0.547330 0.888977
vt 0.958373 0.478564
vt 0.963609 0.479022
vt 0.963298 0.617609
vt 0.548363 0.873058
vt 0.687358 0.873058
vt 0.548167 0.878169
vt 0.424689 0.469607
vt 0.381501 0.602525
vt 0.355487 0.448014
vt 0.168498 0.674105
vt 0.168498 0.534878
vt 0.174485 0.674150
vt 0.983576 0.935120
vt 0.885904 0.935120
vt 0.886293 0.928963
vt 0.932833 0.737526
vt 0.930592 0.416040
vt 0.422089 0.467101
vt 0.422089 0.327305
vt 0.424329 0.466515
vt 0.960015 0.614022
vt 0.960015 0.753004
vt 0.957060 0.614589
vt 0.153062 0.287595
vt 0.153062 0.426831
vt 0.148214 0.426788
vt 0.349361 0.049814
vt 0.211974 0.049814
vt 0.212586 0.042923
vt 0.193250 0.175232
vt 0.179417 0.314464
vt 0.180087 0.175232
vt 0.120373 0.997324
vt 0.119771 0.990438
vt 0.257560 0.989918
vt 0.760319 0.940320
vt 0.892470 0.079047
vt 0.891920 0.085330
vt 0.753262 0.079196
vt 0.274247 0.989024
vt 0.980371 0.211225
vt 0.980371 0.350110
vt 0.972034 0.211674
vt 0.233232 0.412916
vt 0.233232 0.273634
vt 0.236836 0.273541
vt 0.075629 0.478715
vt 0.075629 0.341206
vt 0.079425 0.478430
vt 0.431127 0.339561
vt 0.431127 0.479379
vt 0.426576 0.478180
vt 0.167857 0.981255
vt 0.167857 0.977037
vt 0.305647 0.977318
vt 0.349379 0.991833
vt 0.487225 0.991833
vt 0.486828 0.995900
vt 0.689976 0.072284
vt 0.828670 0.072284
vt 0.690023 0.080316
vt 0.773759 0.143824
vt 0.773759 0.151073
vt 0.633994 0.147681
vt 0.963734 0.841477
vt 0.963734 0.702684
vt 0.970025 0.702939
vt 0.812204 0.973473
vt 0.812799 0.970099
vt 0.950799 0.972195
vt 0.232546 0.276460
vt 0.232546 0.415618
vt 0.229672 0.415886
vt 0.390201 0.081501
vt 0.528882 0.081501
vt 0.389666 0.084839
vt 0.716390 0.589986
vt 0.856230 0.589986
vt 0.856027 0.596472
vt 0.229217 0.035360
vt 0.366465 0.035361
vt 0.229259 0.037750
vt 0.206906 0.527423
vt 0.588534 0.977245
vt 0.450471 0.977245
vt 0.588783 0.916278
vt 0.529197 0.071489
vt 0.430891 0.071489
vt 0.529365 0.069826
vt 0.293004 0.427603
vt 0.293004 0.288089
vt 0.296299 0.427809
vt 0.876803 0.336636
vt 0.876803 0.476416
vt 0.872461 0.475812
vt 0.616411 0.710034
vt 0.616663 0.712918
vt 0.477056 0.705630
vt 0.854198 0.630339
vt 0.967354 0.041013
vt 0.868323 0.350369
vt 0.868323 0.490161
vt 0.862295 0.351048
vt 0.573147 0.630108
vt 0.269913 0.384269
vt 0.172305 0.175245
vt 0.293144 0.878688
vt 0.154258 0.878688
vt 0.293240 0.867141
vt 0.844994 0.989928
vt 0.982778 0.989928
vt 0.982754 0.991917
vt 0.350750 0.777633
vt 0.211497 0.777633
vt 0.350819 0.773888
vt 0.203443 0.265183
vt 0.203443 0.403687
vt 0.195969 0.404591
vt 0.618702 0.116862
vt 0.618702 0.128476
vt 0.478943 0.125806
vt 0.819777 0.588648
vt 0.679732 0.588648
vt 0.680939 0.578182
vt 0.080138 0.248194
vt 0.080138 0.110000
vt 0.086202 0.247644
vt 0.651536 0.908518
vt 0.512841 0.908518
vt 0.651427 0.898155
vt 0.891459 0.483074
vt 0.362226 0.808333
vt 0.500467 0.808333
vt 0.361162 0.811393
vt 0.917074 0.416131
vt 0.917074 0.554853
vt 0.908736 0.415707
vt 0.830341 0.912191
vt 0.968972 0.913600
vt 0.831750 0.913600
vt 0.355795 0.683829
vt 0.378480 0.614012
vt 0.511231 0.657710
vt 0.762850 0.548985
vt 0.606630 0.548985
vt 0.729733 0.485854
vt 0.868181 0.173632
vt 0.736063 0.130704
vt 0.891513 0.104582
vt 0.793384 0.111175
vt 0.653623 0.111175
vt 0.653643 0.107667
vt 0.484654 0.406829
vt 0.532764 0.554898
vt 0.464292 0.544118
vt 0.546255 0.296994
vt 0.703499 0.296994
vt 0.668971 0.361495
vt 0.891868 0.699933
vt 0.891868 0.773079
vt 0.752392 0.772543
vt 0.378354 0.104636
vt 0.518113 0.104636
vt 0.378642 0.176032
vt 0.049175 0.006976
vt 0.049175 0.005531
vt 0.121090 0.007227
vt 0.592895 0.043946
vt 0.494239 0.043946
vt 0.593102 0.039469
vt 0.892435 0.394959
vt 0.886270 0.393872
vt 0.889445 0.255188
vt 0.831468 0.917544
vt 0.892137 0.624107
vt 0.429273 0.181569
vt 0.429273 0.321375
vt 0.422052 0.182816
vt 0.587493 0.423799
vt 0.546683 0.082734
vt 0.546201 0.077226
vt 0.685398 0.080589
vt 0.499444 0.887962
vt 0.360713 0.887962
vt 0.360902 0.880929
vt 0.228998 0.271571
vt 0.228998 0.410961
vt 0.223406 0.272216
vt 0.906567 0.416096
s 1
usemtl Material.002
f 1/1/1 3/2/2 108/3/3
f 1/4/4 258/5/4 2/6/4
f 1/7/5 2/8/5 100/9/5
f 1/10/4 108/11/4 258/12/4
f 1/13/6 100/14/7 3/15/8
f 5/16/9 106/17/10 7/18/11
f 5/19/9 4/20/12 259/21/13
f 5/22/14 6/23/14 326/24/14
f 5/25/15 259/26/15 6/27/15
f 5/19/9 7/28/11 4/20/12
f 5/16/9 326/29/16 106/17/10
f 11/30/17 8/31/17 9/32/17
f 11/33/18 143/34/19 10/35/18
f 11/36/17 9/37/17 188/38/20
f 11/39/21 188/40/22 12/41/21
f 11/42/18 10/43/18 13/44/23
f 11/45/17 13/46/17 8/47/17
f 11/39/21 12/41/21 143/48/24
f 15/49/25 16/50/26 271/51/27
f 15/52/28 183/53/29 14/54/30
f 15/55/31 166/56/31 184/57/31
f 15/58/25 271/59/27 166/60/32
f 15/61/33 14/62/34 16/63/35
f 15/64/36 184/65/36 183/66/36
f 21/67/37 17/68/37 20/69/37
f 21/70/38 84/71/39 17/72/40
f 21/73/41 295/74/41 84/75/41
f 21/76/42 18/77/43 19/78/44
f 21/79/42 20/80/45 18/81/43
f 21/82/41 19/83/41 295/84/41
f 22/85/46 145/86/46 32/87/46
f 22/88/47 171/89/48 23/90/48
f 22/85/46 24/91/46 145/86/46
f 22/92/49 32/93/49 171/94/49
f 22/95/50 23/96/50 24/97/50
f 26/98/51 156/99/52 275/100/53
f 26/101/54 275/102/54 25/103/54
f 26/104/55 284/105/55 54/106/55
f 26/107/51 54/108/56 156/109/52
f 26/110/57 25/111/57 284/112/57
f 28/113/4 185/114/4 27/115/4
f 28/116/4 269/117/4 185/118/4
f 28/119/58 27/120/58 136/121/58
f 28/122/59 136/123/60 316/124/60
f 28/125/61 316/126/61 315/127/61
f 17/128/40 84/129/39 29/130/62
f 17/131/4 29/132/4 85/133/4
f 17/134/4 85/135/4 20/136/4
f 31/137/63 94/138/64 280/139/65
f 31/140/66 33/141/67 30/142/66
f 31/143/68 172/144/69 171/145/70
f 31/137/63 280/139/65 172/146/71
f 31/147/68 171/148/70 32/149/72
f 31/150/66 30/151/66 94/152/73
f 31/153/74 32/154/74 33/155/74
f 36/156/75 59/157/75 37/158/75
f 36/159/76 146/160/76 34/161/76
f 36/162/77 35/163/78 59/164/79
f 36/165/80 34/166/80 35/167/80
f 36/168/46 272/169/46 146/170/46
f 36/171/46 37/172/46 272/173/46
f 38/174/81 44/175/82 39/176/83
f 38/177/81 43/178/84 44/179/82
f 38/180/85 178/181/86 314/182/87
f 38/183/85 314/184/87 43/185/88
f 38/186/81 39/187/83 178/188/89
f 41/189/90 186/190/90 306/191/91
f 41/192/90 227/193/92 186/194/90
f 41/195/93 268/196/94 42/197/95
f 41/198/93 40/199/96 268/200/94
f 41/201/97 42/202/98 228/203/99
f 41/204/100 306/205/100 40/206/100
f 41/201/97 228/203/99 227/207/5
f 44/208/82 43/209/84 45/210/101
f 44/211/102 46/212/103 39/213/103
f 44/214/104 45/215/105 104/216/106
f 44/217/104 104/218/106 46/219/107
f 49/220/108 231/221/109 47/222/110
f 49/223/108 246/224/100 48/225/111
f 49/220/108 48/226/111 231/221/109
f 49/227/112 76/228/113 332/229/112
f 49/230/112 332/231/112 246/232/114
f 49/233/112 47/234/115 76/235/113
f 51/236/116 50/237/116 195/238/116
f 51/239/4 225/240/4 277/241/4
f 51/242/117 192/243/117 232/244/117
f 51/245/4 277/246/4 50/247/4
f 51/248/4 232/249/4 225/250/4
f 51/251/118 195/252/119 192/253/120
f 52/254/4 149/255/4 53/256/4
f 52/257/121 98/258/121 97/259/121
f 52/260/4 53/261/4 274/262/4
f 52/263/122 4/264/122 149/265/122
f 52/266/4 274/267/4 98/268/4
f 52/269/123 97/270/123 4/271/123
f 55/272/124 284/273/124 285/274/124
f 55/275/125 56/276/126 54/277/127
f 55/278/128 54/279/128 284/280/128
f 55/281/129 285/282/130 286/283/131
f 55/284/129 286/285/131 56/286/132
f 8/287/17 57/288/17 9/289/17
f 8/290/46 13/291/46 242/292/46
f 8/290/46 242/292/46 57/293/46
f 58/294/133 185/295/134 269/296/135
f 58/297/133 183/298/136 185/299/134
f 58/300/137 269/301/138 300/302/139
f 58/303/137 300/304/139 299/305/140
f 58/306/141 299/307/142 14/308/143
f 58/309/144 14/54/30 183/53/29
f 61/310/145 59/311/79 35/312/78
f 61/313/146 3/314/147 60/315/147
f 61/316/146 279/317/146 3/318/147
f 61/319/145 35/320/78 62/321/148
f 61/322/149 60/323/150 59/324/151
f 61/325/145 62/326/148 279/327/152
f 63/328/153 260/329/154 262/330/155
f 63/331/156 262/332/156 64/333/156
f 63/334/46 114/335/46 323/336/46
f 63/337/157 323/338/157 260/339/157
f 63/340/46 293/341/46 114/342/46
f 63/343/46 64/344/46 293/345/46
f 68/346/158 163/347/158 65/348/158
f 68/349/159 263/350/160 67/351/161
f 68/352/162 65/353/163 66/354/164
f 68/355/159 67/356/161 163/357/165
f 68/358/162 66/359/164 242/360/166
f 68/361/167 242/362/167 263/363/167
f 69/364/168 170/365/169 172/366/170
f 69/364/168 172/366/170 165/367/171
f 69/368/172 165/369/172 164/370/172
f 69/371/173 278/372/173 170/373/173
f 69/374/174 164/375/174 278/376/174
f 71/377/117 204/378/117 70/379/117
f 71/380/4 281/381/4 204/382/4
f 71/383/4 282/384/4 281/385/4
f 71/386/4 317/387/4 282/388/4
f 71/377/117 70/379/117 317/389/117
f 43/390/84 73/391/175 45/392/101
f 43/393/88 314/394/87 72/395/176
f 43/396/88 72/397/176 73/398/177
f 77/399/46 74/400/46 75/401/46
f 77/402/46 75/403/46 190/404/46
f 77/405/178 76/406/178 74/407/178
f 77/408/46 190/409/46 78/410/46
f 77/411/179 320/412/180 76/413/181
f 77/414/182 78/415/182 320/416/182
f 82/417/183 81/418/184 80/419/185
f 82/420/186 79/421/186 152/422/186
f 82/423/187 80/424/187 83/425/187
f 82/426/188 152/427/188 81/428/188
f 82/429/189 83/430/189 79/431/189
f 84/432/190 295/433/191 211/434/100
f 84/435/190 211/436/100 85/437/5
f 84/438/192 85/439/192 29/440/192
f 86/441/193 16/442/194 307/443/193
f 86/444/195 119/445/196 16/446/197
f 86/447/198 198/448/198 144/449/198
f 86/450/193 307/451/193 197/452/199
f 86/453/200 197/454/200 198/455/200
f 86/456/201 144/457/202 119/458/203
f 88/459/204 127/460/205 200/461/206
f 88/459/204 87/462/46 127/460/205
f 88/463/207 89/464/208 87/465/207
f 88/466/207 200/467/208 89/468/208
f 91/469/209 147/470/209 90/471/209
f 91/472/4 131/473/4 203/474/4
f 91/475/210 252/476/211 147/477/212
f 91/478/4 90/479/4 131/480/4
f 91/481/213 273/482/213 252/483/213
f 91/484/4 203/485/4 273/486/4
f 92/487/117 132/488/117 162/489/117
f 92/490/214 162/491/214 18/492/214
f 92/493/4 210/494/4 93/495/4
f 92/496/215 18/497/215 20/498/215
f 92/499/4 20/500/4 210/501/4
f 92/502/4 93/503/4 132/504/4
f 94/505/216 134/506/217 324/507/218
f 94/508/216 324/509/218 328/510/219
f 94/511/73 30/512/66 134/513/73
f 94/514/216 328/515/219 280/516/219
f 59/517/220 95/518/220 37/519/220
f 59/520/151 60/521/150 95/522/221
f 96/523/222 160/524/223 261/525/224
f 96/526/100 98/527/100 203/528/100
f 96/523/222 202/529/225 160/524/223
f 96/530/226 203/531/226 202/532/226
f 96/523/222 261/525/224 97/533/227
f 96/534/100 97/535/100 98/536/100
f 99/537/228 3/538/8 100/539/7
f 99/540/229 101/541/230 60/542/231
f 99/543/232 102/544/232 101/545/232
f 99/546/233 267/547/234 102/548/235
f 99/549/229 60/550/231 3/551/236
f 99/552/237 100/553/237 267/554/237
f 105/555/238 103/556/239 104/557/239
f 105/558/46 45/559/46 73/560/46
f 105/561/4 254/562/240 276/563/4
f 105/564/46 73/565/46 254/566/46
f 105/567/241 276/568/241 103/569/241
f 105/570/79 104/571/79 45/572/79
f 106/573/242 140/574/242 231/575/242
f 106/17/10 231/221/109 7/18/11
f 106/576/67 137/577/243 140/578/17
f 106/579/67 326/580/244 137/581/243
f 50/247/4 277/246/4 107/582/4
f 50/583/245 249/584/245 195/585/245
f 50/586/246 107/587/246 249/588/246
f 3/589/2 279/590/247 108/591/3
f 109/592/248 113/593/248 114/594/248
f 109/595/249 110/596/250 111/597/251
f 109/598/252 112/599/253 113/600/254
f 109/595/249 115/601/255 110/596/250
f 109/602/256 114/603/256 115/604/256
f 109/605/252 111/606/257 112/607/253
f 116/608/258 117/609/259 329/610/17
f 116/611/46 264/612/46 182/613/46
f 116/614/260 182/615/260 117/616/260
f 116/617/46 118/618/46 301/619/46
f 116/620/46 301/621/46 264/622/46
f 116/623/258 329/624/17 118/625/17
f 16/626/197 119/627/196 271/628/261
f 16/629/35 14/630/34 307/631/262
f 120/632/77 123/633/77 168/634/77
f 120/635/263 121/636/264 122/637/265
f 120/638/263 122/639/265 148/640/266
f 120/641/263 148/642/266 151/643/267
f 120/641/263 151/643/267 123/644/268
f 120/635/263 168/645/269 224/646/270
f 120/635/263 224/646/270 121/636/264
f 124/647/271 239/648/271 303/649/17
f 124/650/46 126/651/46 125/652/46
f 124/647/271 24/653/272 239/648/271
f 124/654/46 125/655/46 24/656/46
f 124/657/46 303/658/46 126/659/46
f 128/660/46 127/661/46 87/662/46
f 128/663/273 87/664/273 89/665/273
f 128/666/77 129/667/77 127/668/77
f 128/669/273 89/670/274 129/671/275
f 130/672/276 131/673/4 90/674/276
f 130/675/277 201/676/277 131/677/277
f 130/672/276 90/674/276 201/678/278
f 132/679/279 317/680/279 233/681/279
f 132/682/280 233/683/281 162/684/282
f 132/685/4 133/686/4 317/687/4
f 132/688/4 93/689/4 133/690/4
f 134/691/283 220/692/284 135/693/285
f 134/694/283 135/695/285 136/696/286
f 134/697/217 136/698/287 324/699/218
f 134/700/283 30/701/288 288/702/289
f 134/700/283 288/702/289 220/703/284
f 139/704/290 113/705/254 112/706/253
f 139/707/46 140/708/46 137/709/46
f 139/710/291 112/711/291 138/712/291
f 139/713/292 138/714/292 78/715/292
f 139/716/46 137/717/46 113/718/46
f 139/719/46 78/720/46 140/721/46
f 142/722/188 141/723/188 207/724/188
f 142/725/293 245/726/293 206/727/293
f 142/728/294 207/729/295 291/730/296
f 142/731/297 206/732/297 141/733/297
f 142/734/294 291/735/296 245/736/298
f 143/737/299 181/738/299 10/739/299
f 143/740/300 212/741/300 181/742/300
f 143/743/301 331/744/302 212/745/303
f 143/746/304 12/747/304 331/748/304
f 145/749/305 209/750/305 248/751/305
f 145/752/46 198/753/46 32/754/46
f 145/755/306 144/756/306 198/757/306
f 145/758/46 24/759/46 209/760/46
f 145/761/307 248/762/307 144/763/307
f 101/764/230 146/765/308 95/766/309
f 101/767/310 102/768/235 215/769/311
f 101/770/230 95/771/309 60/772/231
f 101/773/312 215/774/312 146/775/312
f 147/776/212 252/777/211 289/778/77
f 147/779/313 201/780/313 90/781/313
f 147/782/314 289/783/315 201/784/316
f 149/785/317 265/786/317 150/787/317
f 149/788/4 148/789/4 53/790/4
f 149/791/318 4/792/318 265/793/318
f 149/794/4 150/795/4 151/796/4
f 149/788/4 151/797/4 148/789/4
f 153/798/319 81/799/184 152/800/320
f 153/801/321 79/802/321 318/803/321
f 153/804/322 152/805/322 79/806/322
f 153/798/319 318/807/323 81/799/184
f 155/808/324 9/809/324 57/810/324
f 155/811/46 241/812/46 312/813/46
f 155/814/46 57/815/46 241/816/46
f 155/817/325 304/818/326 154/819/327
f 155/820/328 305/821/328 304/822/328
f 155/817/325 154/819/327 9/823/329
f 155/824/46 312/825/46 305/826/46
f 156/827/330 56/828/331 287/829/332
f 156/830/333 54/831/127 56/832/126
f 156/833/330 287/834/332 275/835/334
f 159/836/335 258/837/335 319/838/335
f 159/839/336 158/840/337 157/841/337
f 159/842/338 157/843/339 218/844/340
f 159/845/341 319/846/341 158/847/341
f 159/848/342 218/849/342 298/850/342
f 159/851/343 298/852/343 258/853/343
f 161/854/100 160/855/100 290/856/100
f 161/857/100 262/858/308 160/859/100
f 161/860/344 294/861/345 64/862/346
f 161/863/100 64/864/17 262/865/308
f 161/866/344 290/867/347 294/868/345
f 163/869/348 162/870/348 65/871/348
f 163/872/349 67/873/350 19/874/351
f 163/875/352 18/876/352 162/877/352
f 163/878/349 19/879/351 18/880/353
f 167/881/4 166/882/4 296/883/4
f 167/884/4 296/885/4 164/886/4
f 167/887/354 165/888/355 328/889/356
f 167/890/4 325/891/4 166/892/4
f 167/893/357 164/894/357 165/895/357
f 167/896/358 328/897/358 325/898/358
f 123/899/268 247/900/359 168/901/360
f 123/899/268 151/902/267 247/900/359
f 169/903/361 170/904/169 257/905/362
f 169/903/361 172/906/170 170/904/169
f 169/907/363 171/908/363 172/909/363
f 169/910/364 257/911/364 23/912/364
f 169/913/365 23/914/48 171/915/48
f 174/916/366 237/917/367 34/918/368
f 174/919/77 158/920/77 237/921/77
f 174/922/369 34/923/369 173/924/369
f 174/925/370 157/926/337 158/927/337
f 174/928/371 173/929/372 175/930/373
f 174/931/371 175/932/373 157/933/374
f 178/934/89 176/935/375 313/936/376
f 178/937/100 177/938/377 314/939/378
f 178/940/100 313/941/379 177/942/377
f 178/943/89 230/944/380 176/945/375
f 178/946/89 39/947/83 230/948/380
f 179/949/381 180/950/382 206/951/383
f 179/952/384 244/953/384 243/954/384
f 179/955/381 243/956/385 180/957/382
f 179/958/386 206/959/386 244/960/386
f 113/961/46 137/962/46 323/963/46
f 113/964/46 323/965/46 114/966/46
f 117/967/259 295/968/191 329/969/17
f 117/970/387 10/971/388 181/972/389
f 117/973/259 181/974/390 295/975/191
f 117/976/387 182/977/391 10/978/388
f 185/979/117 183/980/117 184/981/117
f 185/982/4 184/983/4 27/984/4
f 186/985/392 227/986/392 281/987/392
f 186/988/393 188/989/393 306/990/393
f 186/991/394 281/992/395 187/993/396
f 186/994/394 187/995/396 188/996/397
f 103/997/239 189/998/398 104/999/239
f 103/1000/399 299/1001/77 189/1002/400
f 103/1003/401 322/1004/402 299/1005/403
f 103/1006/401 276/1007/404 322/1008/402
f 140/1009/405 190/1010/405 231/1011/405
f 140/1012/46 78/1013/46 190/1014/46
f 191/1015/406 192/1016/120 195/1017/119
f 191/1018/406 193/1019/407 266/1020/408
f 191/1021/409 321/1022/410 192/1023/411
f 191/1024/406 327/1025/412 193/1026/407
f 191/1027/413 240/1028/414 194/1029/415
f 191/1030/409 194/1031/416 321/1032/410
f 191/1033/413 266/1034/417 240/1035/414
f 191/1036/406 195/1037/119 327/1038/412
f 162/1039/282 233/1040/281 65/1041/418
f 33/1042/46 198/1043/46 197/1044/46
f 33/1045/419 196/1046/419 30/1047/419
f 33/1048/46 197/1049/46 196/1050/46
f 33/1051/46 32/1052/46 198/1053/46
f 127/1054/420 129/1055/420 199/1056/420
f 127/1057/421 199/1058/421 200/1059/421
f 131/1060/422 201/1061/422 202/1062/422
f 131/1063/423 202/1064/423 203/1065/423
f 204/1066/424 205/1067/425 70/1068/426
f 204/1069/4 227/1070/4 297/1071/4
f 204/1072/4 281/1073/4 227/1074/4
f 204/1075/427 297/1076/427 205/1077/427
f 180/1078/428 207/1079/429 208/1080/430
f 180/1081/431 243/1082/432 292/1083/431
f 180/1084/433 208/1085/434 206/1086/435
f 180/1081/431 292/1083/431 291/1087/436
f 180/1088/428 291/1089/437 207/1090/429
f 74/1091/438 76/1092/113 47/1093/115
f 74/1094/438 47/1095/115 75/1096/439
f 141/1097/440 208/1098/440 207/1099/440
f 141/1100/441 206/1101/435 208/1102/434
f 160/1103/442 262/1104/442 261/1105/442
f 160/524/223 201/1106/379 290/1107/443
f 160/524/223 202/529/225 201/1106/379
f 209/1108/444 193/1109/444 248/1110/444
f 209/760/46 24/759/46 125/1111/46
f 209/1112/445 125/1113/446 193/1114/447
f 9/1115/329 154/1116/327 306/1117/448
f 9/1118/449 306/1119/449 188/1120/449
f 210/1121/450 211/1122/451 212/1123/452
f 210/1124/4 20/1125/4 85/1126/4
f 210/1127/453 212/1128/453 93/1129/453
f 210/1130/454 85/1131/454 211/1132/454
f 213/1133/455 307/1134/456 14/1135/457
f 213/1136/458 236/1137/458 214/1138/458
f 213/1139/455 214/1140/459 307/1141/456
f 213/1142/460 322/1143/461 236/1144/462
f 213/1145/460 14/1146/143 322/1147/461
f 146/1148/463 215/1149/463 34/1150/463
f 146/1151/464 272/1152/464 95/1153/464
f 110/1154/250 253/1155/465 111/1156/251
f 110/596/250 115/601/255 216/1157/466
f 110/1154/250 216/1158/466 253/1155/465
f 205/1159/467 219/1160/467 217/1161/467
f 205/1162/468 297/1163/469 218/1164/470
f 205/1165/425 217/1166/471 70/1167/426
f 205/1168/468 218/1169/470 219/1170/472
f 220/1171/473 222/1172/473 255/1173/473
f 220/1174/474 255/1175/475 221/1176/476
f 220/1177/477 221/1178/477 135/1179/477
f 220/1180/284 288/1181/289 222/1182/478
f 121/1183/479 320/1184/479 223/1185/479
f 121/636/264 111/1186/251 122/637/265
f 121/1187/480 223/1188/480 111/1189/480
f 121/1190/264 224/1191/270 320/1192/481
f 225/1193/482 321/1194/483 256/1195/484
f 225/1196/4 232/1197/485 226/1198/486
f 225/1199/487 226/1200/487 321/1201/487
f 225/1202/488 256/1203/488 277/1204/488
f 227/1205/4 228/1206/4 297/1207/4
f 46/1208/489 189/1209/490 229/1210/491
f 46/1211/492 229/1212/493 230/1213/494
f 46/1214/489 104/1215/495 189/1216/490
f 46/1217/103 230/1218/496 39/1219/103
f 231/221/109 48/226/111 7/18/11
f 231/1220/100 190/1221/100 47/1222/100
f 192/1223/497 321/1224/497 232/1225/497
f 235/1226/498 65/1227/498 233/1228/498
f 235/1229/499 217/1230/500 234/1231/501
f 235/1232/502 66/1233/502 65/1234/502
f 235/1235/503 233/1236/504 70/1237/505
f 235/1238/506 234/1239/507 66/1240/508
f 235/1241/499 70/1242/509 217/1243/500
f 222/1244/46 196/1245/46 214/1246/46
f 222/1247/46 236/1248/46 255/1249/46
f 222/1250/46 214/1251/46 236/1252/46
f 222/1253/510 288/1254/510 196/1255/510
f 237/917/367 35/1256/511 34/918/368
f 237/1257/512 158/1258/512 62/1259/512
f 237/1260/513 62/1261/513 35/1262/513
f 98/1263/4 273/1264/4 203/1265/4
f 98/1266/4 274/1267/4 273/1268/4
f 122/1269/265 111/1270/251 238/1271/514
f 122/639/265 238/1272/514 148/640/266
f 239/1273/515 240/1274/515 303/1275/515
f 239/1276/516 257/1277/517 194/1278/518
f 239/1279/519 24/1280/519 23/1281/519
f 239/1276/516 194/1278/518 240/1282/520
f 239/1276/516 23/1283/521 257/1277/517
f 241/1284/46 57/1285/46 242/1286/46
f 241/1287/522 66/1288/508 234/1289/507
f 241/1290/523 242/1291/523 66/1292/523
f 241/1293/524 234/1294/524 312/1295/524
f 135/1296/525 221/1297/526 330/1298/527
f 135/1299/528 316/1300/60 136/1301/60
f 135/1302/525 330/1303/527 316/1304/100
f 244/1305/529 245/1306/529 292/1307/529
f 244/1308/530 292/1309/530 243/1310/530
f 244/1311/531 206/1312/531 245/1313/531
f 188/1314/532 187/1315/532 12/1316/532
f 166/1317/32 271/1318/27 296/1319/533
f 166/1320/4 325/1321/4 184/1322/4
f 247/1323/534 246/1324/114 168/1325/535
f 247/1326/536 150/1327/537 246/1328/538
f 247/1329/4 151/796/4 150/795/4
f 250/1330/539 119/1331/203 248/1332/540
f 250/1333/541 249/1334/542 251/1335/543
f 250/1336/544 327/1337/544 249/1338/544
f 250/1339/545 251/1340/545 119/1341/545
f 250/1330/539 248/1332/540 327/1342/546
f 102/548/235 267/547/234 40/1343/547
f 102/1344/235 40/1345/547 308/1346/548
f 102/768/235 308/1347/548 215/769/311
f 252/1348/549 253/1349/549 216/1350/550
f 252/1351/551 216/1352/551 289/1353/551
f 252/1354/549 273/1355/552 253/1356/549
f 219/1357/553 157/1358/553 175/1359/553
f 219/1360/554 333/1361/555 217/1362/556
f 219/1363/557 218/1364/340 157/1365/339
f 219/1366/558 175/1367/559 333/1368/560
f 254/1369/240 255/1370/240 276/1371/4
f 254/1372/561 73/1373/562 72/1374/563
f 254/1372/561 72/1374/563 255/1375/475
f 112/1376/564 111/1377/565 138/1378/566
f 170/1379/567 277/1380/567 256/1381/567
f 170/1382/568 278/1383/568 277/1384/568
f 170/1385/569 256/1386/569 257/1387/569
f 258/1388/570 108/1389/570 319/1390/570
f 258/1391/4 298/1392/4 2/1393/4
f 260/1394/571 6/1395/572 259/1396/573
f 260/1397/574 323/1398/575 6/1399/576
f 260/1400/571 259/1401/573 261/1402/577
f 260/1403/154 261/1404/578 262/1405/155
f 263/1406/579 264/1407/580 67/1408/580
f 263/1409/46 182/1410/46 264/1411/46
f 263/1412/46 13/1413/46 182/1414/46
f 263/1415/46 242/1416/46 13/1417/46
f 172/1418/581 280/1419/581 165/1420/581
f 265/1421/582 246/1422/538 150/1423/537
f 265/1424/583 48/225/111 246/224/100
f 265/1424/583 4/20/12 7/28/11
f 265/1424/583 7/28/11 48/225/111
f 193/1425/407 126/1426/584 266/1427/408
f 193/1428/585 327/1429/585 248/1430/585
f 193/1114/447 125/1113/446 126/1431/586
f 267/1432/587 268/1433/587 40/1434/587
f 267/1435/588 100/1436/588 268/1437/588
f 269/1438/589 270/1439/589 300/1440/589
f 119/458/203 144/457/202 248/1441/540
f 119/1442/77 251/1443/590 271/1444/590
f 95/1445/220 272/1446/220 37/1447/220
f 253/1448/465 310/1449/591 111/1270/251
f 253/1450/117 273/1451/117 274/1452/117
f 253/1453/592 274/1454/592 310/1455/592
f 275/1456/593 283/1457/593 25/1458/593
f 275/1459/594 287/1460/594 283/1461/594
f 255/1462/46 236/1463/46 276/1464/46
f 255/1175/475 72/1465/563 221/1176/476
f 138/1378/566 111/1377/565 223/1466/595
f 138/1467/566 223/1468/595 78/1469/596
f 277/1470/4 278/1471/4 107/1472/4
f 279/1473/152 319/1474/597 108/1475/117
f 279/1476/152 62/1477/148 319/1478/597
f 264/1407/580 301/1479/598 67/1408/580
f 280/1480/599 328/1481/356 165/1482/355
f 246/1483/114 332/1484/112 168/1485/535
f 176/1486/600 229/1487/600 270/1488/600
f 176/1489/601 230/1490/494 229/1491/493
f 176/1492/4 270/1493/4 313/1494/4
f 281/1495/602 282/1496/603 187/1497/604
f 284/1498/605 283/1499/606 287/1500/607
f 284/1501/605 25/1502/608 283/1503/606
f 284/1504/609 287/1505/610 285/1506/611
f 75/1507/612 47/1508/612 190/1509/612
f 56/1510/331 286/1511/613 287/1512/332
f 196/1513/46 197/1514/46 214/1515/46
f 196/1516/614 288/1517/614 30/1518/614
f 201/1519/316 289/1520/315 290/1521/347
f 148/1522/615 238/1523/615 53/1524/615
f 81/418/184 318/1525/323 80/419/185
f 245/1526/616 291/1527/616 292/1528/616
f 268/1529/617 2/1530/618 42/1531/619
f 268/1532/617 100/1533/620 2/1534/618
f 115/1535/621 114/1536/621 293/1537/621
f 115/1538/622 294/1539/622 289/1540/623
f 115/601/255 289/1541/624 216/1157/466
f 115/1542/622 293/1543/625 294/1544/622
f 295/1545/191 181/1546/390 211/1547/100
f 295/1548/626 19/1549/626 329/1550/626
f 296/1551/117 271/1552/590 251/1553/590
f 296/1554/627 251/1555/627 107/1556/627
f 296/1557/4 107/1558/4 164/1559/4
f 297/1560/628 298/1561/628 218/1562/628
f 297/1563/4 228/1564/4 298/1565/4
f 189/1566/629 300/1567/630 229/1568/631
f 189/1569/400 299/1570/77 300/1571/152
f 67/1572/632 302/1573/632 19/1574/633
f 67/1575/632 301/1576/634 302/1577/632
f 126/1578/635 303/1579/636 266/1580/637
f 304/1581/638 305/1582/638 308/1583/638
f 304/1584/639 40/1585/639 306/1586/639
f 304/1587/640 308/1346/548 40/1345/547
f 304/1588/326 306/1117/448 154/1116/327
f 300/1589/630 270/1590/641 229/1591/631
f 211/1592/451 181/1593/642 212/1594/452
f 307/1595/643 214/1596/643 197/1597/643
f 215/1598/644 173/1599/644 34/1600/644
f 215/1601/311 308/1602/548 309/1603/645
f 215/1604/46 309/1605/46 173/1606/46
f 129/671/275 89/670/274 199/1607/646
f 76/1608/181 320/1609/180 332/1610/647
f 278/1471/4 164/1611/4 107/1472/4
f 53/1612/648 310/1613/648 274/1614/648
f 53/1615/649 238/1616/514 310/1617/591
f 311/1618/46 305/1619/46 312/1620/46
f 311/1621/650 333/1622/560 175/1623/559
f 311/1624/46 173/1625/46 309/1626/46
f 311/1627/46 309/1628/46 305/1629/46
f 311/1630/290 175/1631/290 173/1632/290
f 311/1633/651 312/1634/652 333/1635/555
f 177/1636/653 313/1637/653 315/1638/653
f 177/1639/654 316/1640/655 330/1641/656
f 177/1642/657 330/1643/658 314/1644/659
f 177/1645/654 315/1646/660 316/1647/655
f 10/1648/661 182/1649/661 13/1650/661
f 282/1651/4 317/1652/4 133/1653/4
f 282/1496/603 133/1654/5 187/1497/604
f 79/1655/662 83/1656/662 318/1657/662
f 158/1658/663 319/1659/663 62/1660/663
f 313/1661/4 270/1662/4 315/1663/4
f 317/1664/664 70/1665/505 233/1666/504
f 314/1667/659 330/1668/658 72/1669/665
f 320/1670/666 78/1469/596 223/1468/595
f 320/1192/481 224/1191/270 332/1671/77
f 321/1672/483 194/1673/667 256/1674/484
f 321/1675/668 226/1198/486 232/1197/485
f 4/20/12 97/1676/227 259/21/13
f 305/1677/669 309/1603/645 308/1602/548
f 299/1678/142 322/1679/461 14/1680/143
f 199/1681/670 89/1682/670 200/1683/670
f 137/1684/243 326/1685/244 323/1686/17
f 217/1687/556 333/1688/555 234/1689/671
f 27/1690/672 325/1691/672 324/1692/672
f 27/1693/673 324/1694/218 136/1695/287
f 27/1696/4 184/1697/4 325/1698/4
f 236/1699/674 322/1700/674 276/1701/674
f 6/1399/576 323/1398/575 326/1702/675
f 249/1703/676 327/1704/676 195/1705/676
f 249/1706/542 107/1707/677 251/1708/543
f 2/1709/4 298/1710/4 42/1711/4
f 294/1712/345 293/1713/678 64/1714/346
f 294/1715/345 290/1716/347 289/1717/315
f 310/1449/591 238/1271/514 111/1270/251
f 240/1718/679 266/1719/637 303/1720/636
f 325/1721/378 328/1722/219 324/1723/218
f 285/1724/611 287/1725/610 286/1726/680
f 302/1727/681 118/1728/682 329/1729/683
f 302/1730/681 301/1731/684 118/1732/682
f 302/1733/685 329/1734/685 19/1735/685
f 221/1736/686 72/1737/686 330/1738/686
f 257/1739/100 256/1740/100 194/1741/100
f 212/1742/303 331/1743/302 93/1744/687
f 42/1711/4 298/1710/4 228/1745/4
f 332/1746/77 224/646/270 168/645/269
f 333/1747/555 312/1748/652 234/1749/671
f 80/419/185 318/1525/323 83/1750/688
f 331/1751/689 187/1752/690 133/1753/691
f 331/1754/692 133/1755/692 93/1756/692
f 331/1757/689 12/1758/693 187/1759/690
f 259/1760/13 97/533/227 261/525/224
