<svg xmlns="http://www.w3.org/2000/svg" width="96" height="96" viewBox="0 0 96 96"><path d="M22 47V31a8 8 0 0 1 16 0V20a8 8 0 0 1 16 0v7a8 8 0 0 1 16 0v9a8 8 0 0 1 13 6v19c0 14-11 25-25 25H43C27 86 16 75 16 59V47a7 7 0 0 1 6-7Z" fill="#ffbb72" stroke="#102838" stroke-width="6" stroke-linejoin="round"/><path d="M38 31v23m16-27v25m16-16v17M26 56c8-8 18-8 27-1" fill="none" stroke="#ad643e" stroke-width="5" stroke-linecap="round"/><path d="M22 71h13m26 5h12" stroke="#ffe0a7" stroke-width="5" stroke-linecap="round"/></svg>
