<svg xmlns="http://www.w3.org/2000/svg" width="112" height="60" viewBox="0 0 112 60"><defs><linearGradient id="bill" x2="1" y2="1"><stop stop-color="#daff61"/><stop offset="1" stop-color="#30e75b"/></linearGradient></defs><rect x="3" y="5" width="106" height="52" rx="5" fill="#045f31"/><rect x="3" y="2" width="106" height="50" rx="4" fill="url(#bill)" stroke="#16c647" stroke-width="2"/><path d="M17 9H95Q95 18 103 18V37Q95 37 95 45H17Q17 37 10 37V18Q17 18 17 9Z" fill="none" stroke="#36b849" stroke-width="3"/><ellipse cx="56" cy="27" rx="15" ry="19" fill="#20b446"/><path d="M62 18C47 11 44 27 56 27S67 43 49 37M56 11V43" fill="none" stroke="#b5ff65" stroke-width="4"/><circle cx="25" cy="27" r="4" fill="#28b348"/><circle cx="87" cy="27" r="4" fill="#28b348"/></svg>
